<svg width="45" height="52" viewBox="0 0 45 52" fill="none" xmlns="http://www.w3.org/2000/svg">
<path d="M43.7681 20.0121C41.9467 16.8927 38.9958 14.5977 35.5295 13.6046C32.0632 12.6116 28.3485 12.9971 25.1585 14.6808V1.35249H19.8415V14.6808C16.6515 12.9971 12.9368 12.6116 9.4705 13.6046C6.00422 14.5977 3.05333 16.8927 1.23194 20.0121C-4.08507 28.0091 9.20746 52 14.5245 52C19.8415 52 19.8415 49.3343 22.5 49.3343C25.1585 49.3343 25.1585 52 30.4755 52C35.7925 52 49.0851 28.0091 43.7681 20.0121ZM39.1157 29.022C37.4674 35.6062 34.224 41.6572 29.678 46.6687C29.1463 46.6687 28.5348 46.4021 28.0829 46.0023C26.5027 44.7212 24.5321 44.0223 22.5 44.0223C20.4679 44.0223 18.4973 44.7212 16.9171 46.0023C16.4652 46.4021 15.8537 46.6687 15.322 46.6687C10.7633 41.674 7.51949 35.6177 5.88433 29.0487C5.2197 27.1028 5.08678 24.9969 5.64506 22.9976C6.40174 21.6449 7.49484 20.5116 8.81793 19.7081C10.141 18.9047 11.6491 18.4584 13.1952 18.4127C14.684 18.4394 16.1462 18.7859 17.4754 19.4523L19.8415 20.6519H25.1585L27.5246 19.4523C28.8538 18.7859 30.316 18.4394 31.8048 18.4127C34.9418 18.4927 37.813 20.2254 39.3549 22.971C39.9132 24.9702 39.7803 27.0761 39.1157 29.022ZM19.8415 6.68381C4.90068 14.8674 1.52438 3.4317 1.52438 3.4317C1.52438 3.4317 8.59601 -6.13801 19.8415 6.68381Z" fill="#3D6E57"/>
</svg>
