<svg width="281" height="262" viewBox="0 0 281 262" fill="none" xmlns="http://www.w3.org/2000/svg">
<path d="M186.198 5.01486C186.198 5.01486 140.696 -11.1629 96.0298 14.5952C51.3635 40.3534 28.8229 91.4907 9.46971 132.452C-9.88348 173.414 1.25453 215.079 35.3301 234.09C69.4056 253.1 92.6138 225.069 140.443 223.715C188.273 222.362 201.167 229.158 240.854 202.161C280.541 175.164 287.721 111.349 256.412 64.1028C225.103 16.8565 186.198 5.01486 186.198 5.01486Z" fill="#5DA885"/>
<path opacity="0.7" d="M186.198 5.01486C186.198 5.01486 140.696 -11.1629 96.0298 14.5952C51.3635 40.3534 28.8229 91.4907 9.46971 132.452C-9.88348 173.414 1.25453 215.079 35.3301 234.09C69.4056 253.1 92.6138 225.069 140.443 223.715C188.273 222.362 201.167 229.158 240.854 202.161C280.541 175.164 287.721 111.349 256.412 64.1028C225.103 16.8565 186.198 5.01486 186.198 5.01486Z" fill="white"/>
<path d="M265.981 113.983C265.981 113.983 265.981 110.603 261.254 105.876C256.526 101.149 253.483 98.4429 253.483 98.4429C253.483 98.4429 251.12 106.213 255.51 110.946C258.74 114.272 262.242 117.322 265.981 120.063V113.983Z" fill="#5DA885"/>
<path d="M259.118 135.081C259.118 135.081 259.119 131.701 254.391 126.974C249.664 122.247 246.621 119.54 246.621 119.54C246.621 119.54 244.258 127.31 248.648 132.037C251.877 135.366 255.379 138.418 259.118 141.161V135.081Z" fill="#5DA885"/>
<path d="M265.704 119.738C265.704 119.738 266.059 116.377 271.261 112.173C276.463 107.969 279.771 105.605 279.771 105.605C279.771 105.605 281.304 113.58 276.439 117.82C272.876 120.788 269.069 123.452 265.06 125.783L265.704 119.738Z" fill="#5DA885"/>
<path d="M257.392 144.649C257.392 144.649 258.102 141.353 263.719 137.745C269.336 134.136 272.873 132.104 272.873 132.104C272.873 132.104 273.552 140.198 268.272 143.903C264.415 146.48 260.35 148.729 256.117 150.627L257.392 144.649Z" fill="#5DA885"/>
<path d="M258.95 171.814C258.95 171.814 258.95 168.434 263.683 163.707C268.416 158.98 271.453 156.274 271.453 156.274C271.453 156.274 273.817 164.044 269.427 168.771C266.195 172.099 262.691 175.151 258.95 177.894V171.814Z" fill="#5DA885"/>
<path d="M258.872 178.442C258.872 178.442 259.353 175.098 255.348 169.745C251.342 164.393 248.732 161.29 248.732 161.29C248.732 161.29 245.292 168.639 248.967 173.919C251.69 177.673 254.724 181.192 258.036 184.438L258.872 178.442Z" fill="#5DA885"/>
<path d="M254.211 198.096C254.211 198.096 254.211 194.716 258.938 189.989C263.665 185.262 266.708 182.555 266.708 182.555C266.708 182.555 269.072 190.326 264.681 195.053C261.451 198.38 257.949 201.431 254.211 204.176V198.096Z" fill="#5DA885"/>
<path d="M257.368 215.927C257.368 215.927 256.514 212.656 259.888 206.906C263.262 201.157 265.523 197.747 265.523 197.747C265.523 197.747 269.781 204.663 266.726 210.376C264.444 214.412 261.829 218.25 258.908 221.851L257.368 215.927Z" fill="#5DA885"/>
<path d="M266.414 113.117C266.169 116.635 265.731 120.136 265.102 123.606C263.232 133.264 258.559 139.495 256.683 148.221C254.806 156.948 260.183 168.182 258.746 179.386C257.308 190.59 252.948 196.827 254.193 204.302C255.438 211.778 261.981 232.027 261.981 232.027" stroke="#263238" stroke-linecap="round" stroke-linejoin="round"/>
<path d="M265.638 121.982L270.738 118.073" stroke="#263238" stroke-linecap="round" stroke-linejoin="round"/>
<path d="M265.878 117.477L263.743 113.683" stroke="#263238" stroke-linecap="round" stroke-linejoin="round"/>
<path d="M256.99 147.818C256.99 147.818 261.253 144.619 265.638 141.419" stroke="#263238" stroke-linecap="round" stroke-linejoin="round"/>
<path d="M259.118 141.161C259.118 141.161 255.564 134.19 251.535 129.566" stroke="#263238" stroke-linecap="round" stroke-linejoin="round"/>
<path d="M259.118 176.619C261.555 172.13 264.63 168.017 268.248 164.411" stroke="#263238" stroke-linecap="round" stroke-linejoin="round"/>
<path d="M258.289 181.359C256.998 178.312 255.455 175.379 253.676 172.59C251.186 168.916 250.831 168.44 250.831 168.44" stroke="#263238" stroke-linecap="round" stroke-linejoin="round"/>
<path d="M254.211 204.302C255.291 201.617 256.575 199.019 258.054 196.532C259.531 194.225 261.197 192.045 263.034 190.013" stroke="#263238" stroke-linecap="round" stroke-linejoin="round"/>
<path d="M258.908 221.791C258.908 221.791 258.409 217.744 260.189 214.31C261.969 210.875 263.978 206.365 264.808 204.591" stroke="#263238" stroke-linecap="round" stroke-linejoin="round"/>
<path d="M235.032 159.112C235.032 159.112 234.665 156.989 237.119 153.513C239.573 150.037 241.185 148.01 241.185 148.01C241.185 148.01 243.512 152.623 241.269 156.069C239.606 158.505 237.741 160.796 235.694 162.919L235.032 159.112Z" fill="#5DA885"/>
<path d="M241.612 171.592C241.612 171.592 241.245 169.475 243.692 165.998C246.14 162.522 247.758 160.496 247.758 160.496C247.758 160.496 250.085 165.108 247.848 168.548C246.183 170.986 244.316 173.279 242.267 175.404L241.612 171.592Z" fill="#5DA885"/>
<path d="M235.826 162.685C235.826 162.685 235.225 160.616 231.52 158.547C227.815 156.478 225.47 155.354 225.47 155.354C225.47 155.354 225.374 160.52 228.886 162.649C231.443 164.122 234.118 165.38 236.885 166.408L235.826 162.685Z" fill="#5DA885"/>
<path d="M243.729 177.437C243.729 177.437 242.929 175.447 239.014 173.775C235.098 172.103 232.663 171.231 232.663 171.231C232.663 171.231 233.108 176.379 236.824 178.129C239.521 179.327 242.313 180.296 245.172 181.028L243.729 177.437Z" fill="#5DA885"/>
<path d="M245.701 194.613C245.701 194.613 245.334 192.491 241.858 190.043C238.382 187.595 236.175 186.224 236.175 186.224C236.175 186.224 235.537 191.354 238.803 193.844C241.193 195.577 243.721 197.109 246.363 198.426L245.701 194.613Z" fill="#5DA885"/>
<path d="M246.459 198.757C246.459 198.757 245.797 196.712 247.728 192.923C249.658 189.135 250.969 186.909 250.969 186.909C250.969 186.909 253.928 191.119 252.172 194.872C250.874 197.521 249.355 200.056 247.632 202.45L246.459 198.757Z" fill="#5DA885"/>
<path d="M252.407 215.843C252.407 215.843 252.653 213.708 255.985 211.062C259.317 208.416 261.434 206.906 261.434 206.906C261.434 206.906 262.366 211.988 259.245 214.658C256.963 216.528 254.529 218.204 251.968 219.668L252.407 215.843Z" fill="#5DA885"/>
<path d="M251.529 210.575C251.529 210.575 251.162 208.458 247.68 206.004C244.198 203.55 242.003 202.191 242.003 202.191C242.003 202.191 241.365 207.315 244.631 209.805C247.018 211.542 249.546 213.075 252.19 214.388L251.529 210.575Z" fill="#5DA885"/>
<path d="M251.481 222.092C251.481 222.092 251.661 219.945 248.919 216.679C246.176 213.413 244.39 211.543 244.39 211.543C244.39 211.543 242.478 216.354 244.992 219.578C246.862 221.862 248.92 223.986 251.144 225.929L251.481 222.092Z" fill="#5DA885"/>
<path d="M234.653 158.613C235.185 160.792 235.835 162.941 236.602 165.048C238.827 170.906 242.43 174.304 244.552 179.572C246.675 184.84 244.522 192.466 246.639 199.34C248.756 206.214 252.172 209.642 252.202 214.466C252.232 219.289 250.326 232.7 250.326 232.7" stroke="#263238" stroke-linecap="round" stroke-linejoin="round"/>
<path d="M236.097 164.086L232.476 162.186" stroke="#263238" stroke-linecap="round" stroke-linejoin="round"/>
<path d="M235.459 161.29L236.385 158.679" stroke="#263238" stroke-linecap="round" stroke-linejoin="round"/>
<path d="M244.33 179.35C244.33 179.35 241.323 177.804 238.208 176.277" stroke="#263238" stroke-linecap="round" stroke-linejoin="round"/>
<path d="M242.249 175.405C243.137 172.596 244.309 169.885 245.749 167.316" stroke="#263238" stroke-linecap="round" stroke-linejoin="round"/>
<path d="M246.116 197.645C244.103 195.091 241.728 192.845 239.068 190.975" stroke="#263238" stroke-linecap="round" stroke-linejoin="round"/>
<path d="M247.151 200.525C247.633 198.47 248.285 196.459 249.099 194.511C250.26 191.937 250.434 191.6 250.434 191.6" stroke="#263238" stroke-linecap="round" stroke-linejoin="round"/>
<path d="M252.04 218.128C252.04 218.128 254.446 215.187 255.931 214.087C256.831 213.423 257.676 212.686 258.457 211.886" stroke="#263238" stroke-linecap="round" stroke-linejoin="round"/>
<path d="M252.202 214.466C251.232 212.9 250.144 211.411 248.949 210.009C247.772 208.725 246.49 207.54 245.118 206.467" stroke="#263238" stroke-linecap="round" stroke-linejoin="round"/>
<path d="M251.156 225.947C251.032 224.312 250.474 222.74 249.538 221.394C248.053 219.427 246.303 216.823 245.587 215.801" stroke="#263238" stroke-linecap="round" stroke-linejoin="round"/>
<path d="M265.487 260.66H246.778C246.387 260.66 246.012 260.504 245.736 260.228C245.459 259.952 245.304 259.577 245.304 259.186L240.667 230.361H271.604L266.961 259.186C266.961 259.577 266.806 259.952 266.529 260.228C266.253 260.504 265.878 260.66 265.487 260.66Z" fill="#263238" stroke="#263238" stroke-linecap="round" stroke-linejoin="round"/>
<path d="M271.333 234.396H240.661C240.023 234.396 239.412 234.143 238.96 233.692C238.509 233.24 238.256 232.629 238.256 231.991C238.256 231.353 238.509 230.741 238.96 230.29C239.412 229.838 240.023 229.585 240.661 229.585H271.333C271.971 229.585 272.583 229.838 273.034 230.29C273.485 230.741 273.739 231.353 273.739 231.991C273.739 232.629 273.485 233.24 273.034 233.692C272.583 234.143 271.971 234.396 271.333 234.396Z" fill="#263238" stroke="#263238" stroke-linecap="round" stroke-linejoin="round"/>
<path d="M241.882 234.505H264.152" stroke="white" stroke-linecap="round" stroke-linejoin="round"/>
<path d="M266.245 234.505H269.914" stroke="white" stroke-linecap="round" stroke-linejoin="round"/>
<path d="M140.955 93.8843C140.955 93.8843 139.391 95.4479 139.547 97.0115C139.704 98.5752 152.995 126.571 154.402 128.603C155.809 130.636 159.875 131.262 161.757 130.167C163.64 129.072 170.983 121.254 170.983 121.254L170.616 81.1646C170.616 81.1646 164.103 99.8081 162.226 102.815C160.35 105.822 159.406 107.356 159.406 107.356C159.406 107.356 155.196 95.4659 154.089 93.1205C153.315 91.611 152.12 90.3578 150.649 89.512L140.955 93.8843Z" fill="#BFBFBF" stroke="#263238" stroke-linecap="round" stroke-linejoin="round"/>
<path d="M173.857 250.207C173.857 250.207 164.47 253.755 160.921 255.018C157.373 256.281 157.584 259.402 157.998 260.028L158.419 260.629H192.014C192.511 258.848 192.438 256.955 191.803 255.217C190.763 252.101 173.857 250.207 173.857 250.207Z" fill="white" stroke="#263238" stroke-linecap="round" stroke-linejoin="round"/>
<path d="M192.333 258.988H157.782C157.762 259.35 157.836 259.71 157.998 260.034L158.419 260.636H192.014C192.187 260.101 192.294 259.548 192.333 258.988Z" fill="white" stroke="#263238" stroke-linecap="round" stroke-linejoin="round"/>
<path d="M166.761 135.664C166.761 135.664 164.47 158.409 164.47 170.094C164.47 181.779 168.643 204.945 169.882 212.042C171.121 219.139 175.295 241.463 175.295 243.129C175.295 244.794 175.295 246.887 174.044 247.723C173.623 247.982 173.283 248.354 173.062 248.796C172.841 249.238 172.748 249.733 172.793 250.225V251.476C172.793 251.476 182.806 256.486 187.191 256.696C189.134 256.85 191.087 256.85 193.03 256.696C193.03 256.696 192.615 247.302 192.615 243.339C192.615 239.376 192.826 210.996 193.03 206.611C193.235 202.227 194.077 170.72 194.913 161.957C195.749 153.195 198.25 138.172 198.25 138.172L167.579 133.162L166.761 135.664Z" fill="#5DA885" stroke="#263238" stroke-linecap="round" stroke-linejoin="round"/>
<path d="M196.188 250.207C196.188 250.207 186.794 253.755 183.251 255.018C179.709 256.281 179.908 259.402 180.329 260.028L180.744 260.629H214.338C214.836 258.848 214.764 256.955 214.134 255.217C213.087 252.101 196.188 250.207 196.188 250.207Z" fill="white" stroke="#263238" stroke-linecap="round" stroke-linejoin="round"/>
<path d="M214.633 258.988H180.106C180.09 259.35 180.167 259.71 180.329 260.034L180.744 260.636H214.338C214.506 260.101 214.606 259.547 214.633 258.988Z" fill="white" stroke="#263238" stroke-linecap="round" stroke-linejoin="round"/>
<path d="M184.707 138.376C184.707 138.376 184.917 170.305 184.707 179.693C184.496 189.08 190.119 212.872 191.803 218.507C193.487 224.142 196.392 246.051 196.615 247.098C196.837 248.144 193.487 249.185 193.487 251.476C193.487 253.767 202.665 253.774 202.665 253.774C202.665 253.774 211.223 256.275 212.059 256.275C212.916 256.38 213.756 256.592 214.56 256.907C215.4 253.984 215.89 250.972 216.022 247.934C216.057 244.471 215.564 241.024 214.56 237.71C214.56 237.71 215.607 219.349 214.771 208.5C213.935 197.65 211.638 184.504 211.638 180.535C211.638 176.565 213.935 169.27 214.981 161.127C216.028 152.984 216.437 141.094 216.437 138.593C216.437 136.091 185.164 135.465 185.164 135.465L184.707 138.376Z" fill="#5DA885" stroke="#263238" stroke-linecap="round" stroke-linejoin="round"/>
<path d="M192.639 73.4846C192.639 73.4846 177.195 76.197 174.483 76.6119C171.771 77.0269 170.081 81.2127 169.479 84.7489C168.878 88.2852 165.306 134.413 166.761 135.664C168.216 136.915 207.452 141.076 211.836 141.299C216.22 141.521 217.682 141.72 218.097 138.587C218.512 135.453 224.887 90.6667 226.089 86.5832C228.17 79.4926 209.334 75.7579 204.95 74.7355C200.566 73.7132 192.639 73.4846 192.639 73.4846Z" fill="#BFBFBF" stroke="#263238" stroke-linecap="round" stroke-linejoin="round"/>
<path d="M213.382 76.9126C213.382 76.9126 205.774 99.7659 204.523 103.116C203.272 106.466 203.266 107.283 203.266 107.283L177.604 101.871C177.604 101.871 180.317 88.9346 181.357 85.3864C182.397 81.8381 184.887 74.8438 184.887 74.8438L183.029 75.1625C183.029 75.1625 176.979 94.5698 175.517 99.784C174.056 104.998 167.182 121.687 166.761 126.919C166.34 132.152 164.259 151.541 163.634 164.483C163.008 177.425 163.844 190.981 163.844 190.981C163.844 190.981 188.255 195.57 195.562 195.365C202.869 195.161 207.452 195.155 207.452 195.155C207.452 195.155 206.85 170.323 207.662 162.396C208.474 154.47 211.211 139.856 211.211 139.856L217.886 139.441L218.097 138.605L209.96 138.003C209.96 138.003 205.563 109.166 205.563 108.119V106.472L214.771 77.4899L213.382 76.9126Z" fill="#263238" stroke="#263238" stroke-linecap="round" stroke-linejoin="round"/>
<path d="M223.137 157.188C223.137 157.188 218.325 164.074 217.97 165.223C217.616 166.371 218.734 171.159 218.734 172.686C218.734 174.214 220.647 174.22 220.647 174.22C220.647 174.22 219.69 176.704 220.839 177.666C221.988 178.628 226.961 178.43 227.918 176.704C228.874 174.978 232.729 169.054 232.729 166.179C232.62 163.796 232.3 161.427 231.773 159.1L223.137 157.188Z" fill="#828282" stroke="#263238" stroke-linecap="round" stroke-linejoin="round"/>
<path d="M220.647 174.22C220.647 174.22 222.18 172.878 222.18 171.158C222.18 169.438 223.708 166.564 223.708 166.564" stroke="#263238" stroke-linecap="round" stroke-linejoin="round"/>
<path d="M223.521 152.78C223.329 153.351 221.988 157.375 223.137 158.523C224.285 159.672 231.364 160.815 232.128 160.051C232.891 159.287 234.232 154.885 234.232 154.885L223.521 152.78Z" fill="#BFBFBF" stroke="#263238" stroke-linecap="round" stroke-linejoin="round"/>
<path d="M215.288 108.39L222.944 125.993C222.944 125.993 220.454 151.066 221.795 153.171C223.137 155.275 234.046 156.232 235.958 154.891C237.871 153.549 239.212 148.768 239.976 140.156C240.74 131.544 236.53 107.434 235.381 103.41C234.232 99.387 226.613 83.3175 224.857 81.9824C223.1 80.6473 219.883 81.0201 218.927 81.381" fill="#BFBFBF"/>
<path d="M215.288 108.39L222.944 125.993C222.944 125.993 220.454 151.066 221.795 153.171C223.137 155.275 234.046 156.232 235.958 154.891C237.871 153.549 239.212 148.768 239.976 140.156C240.74 131.544 236.53 107.434 235.381 103.41C234.232 99.387 226.613 83.3175 224.857 81.9824C223.1 80.6473 219.883 81.0201 218.927 81.381" stroke="#263238" stroke-linecap="round" stroke-linejoin="round"/>
<path d="M147.739 85.4224C147.739 85.4224 146.012 78.5363 144.485 75.854C142.957 73.1718 132.812 69.5393 131.663 69.5393C130.514 69.5393 130.899 72.0291 130.899 74.3505C130.899 76.672 131.278 80.6653 133.768 83.3415C136.258 86.0178 140.654 87.9363 140.654 87.9363L141.995 91.1898L148.887 87.5514L147.739 85.4224Z" fill="#828282" stroke="#263238" stroke-linecap="round" stroke-linejoin="round"/>
<path d="M143.769 66.9834L144.13 65.3837C144.226 64.9622 144.235 64.5257 144.158 64.1005C144.081 63.6752 143.919 63.2699 143.681 62.9088C143.443 62.5478 143.136 62.2384 142.776 61.9991C142.416 61.7599 142.011 61.5958 141.586 61.5167V61.5167C140.872 61.3827 140.134 61.494 139.491 61.8324C138.848 62.1708 138.338 62.7165 138.044 63.381L123.436 96.5424" stroke="#263238" stroke-linecap="round" stroke-linejoin="round"/>
<path d="M108.28 94.197C108.359 96.1939 109.208 98.0827 110.649 99.4677C112.089 100.853 114.01 101.626 116.008 101.626C118.007 101.626 119.928 100.853 121.368 99.4677C122.809 98.0827 123.658 96.1939 123.736 94.197H108.28Z" fill="white" stroke="#263238" stroke-linecap="round" stroke-linejoin="round"/>
<path d="M110.782 84.2798C110.86 83.6735 111.008 83.0782 111.221 82.5056" stroke="#263238" stroke-linecap="round" stroke-linejoin="round"/>
<path d="M110.542 92.7836C111.859 92.1401 112.49 89.8908 111.943 88.682C111.561 87.9022 111.23 87.0987 110.951 86.2764" stroke="#263238" stroke-linecap="round" stroke-linejoin="round"/>
<path d="M115.275 92.7836C116.598 92.1401 117.223 89.8908 116.682 88.682C116.014 87.2085 115.551 86.2222 115.479 85.1277" stroke="#263238" stroke-linecap="round" stroke-linejoin="round"/>
<path d="M120.272 83.9129C120.36 83.4337 120.489 82.9628 120.657 82.5056" stroke="#263238" stroke-linecap="round" stroke-linejoin="round"/>
<path d="M119.996 92.7836C121.313 92.1401 121.944 89.8908 121.397 88.682C121.042 87.9487 120.728 87.1957 120.459 86.4268" stroke="#263238" stroke-linecap="round" stroke-linejoin="round"/>
<path d="M133.191 69.5393C133.191 69.5393 128.217 68.3906 127.838 69.3468C127.459 70.303 127.453 72.2215 128.217 72.7929C128.981 73.3642 134.153 73.5566 134.724 73.3943C135.295 73.2319 136.643 69.8821 133.191 69.5393Z" fill="#828282" stroke="#263238" stroke-linecap="round" stroke-linejoin="round"/>
<path d="M134.429 74.0979C134.429 74.0979 129.456 72.9493 129.071 73.9115C128.686 74.8738 128.686 76.7802 129.456 77.3515C130.226 77.9229 135.386 78.1213 135.963 77.9529C136.54 77.7845 137.882 74.4407 134.429 74.0979Z" fill="#828282" stroke="#263238" stroke-linecap="round" stroke-linejoin="round"/>
<path d="M134.899 78.013C134.899 78.013 129.799 77.7244 129.582 78.7347C129.366 79.7451 129.69 81.6275 130.544 82.0665C131.398 82.5055 136.522 81.8139 137.052 81.5252C137.581 81.2366 138.357 77.7664 134.899 78.013Z" fill="#828282" stroke="#263238" stroke-linecap="round" stroke-linejoin="round"/>
<path d="M135.536 82.1029C135.536 82.1029 131.326 81.8623 131.152 82.7043C130.977 83.5462 131.242 85.1099 131.946 85.4587C132.649 85.8075 136.883 85.2482 137.322 85.0137C137.761 84.7791 138.393 81.8924 135.536 82.1029Z" fill="#828282" stroke="#263238" stroke-linecap="round" stroke-linejoin="round"/>
<path d="M146.205 81.2127C146.205 81.2127 144.864 73.7493 144.1 72.4142C143.336 71.079 136.444 67.4345 135.079 66.6708C133.714 65.907 131.471 64.9507 131.056 66.2859C130.879 66.9 130.916 67.5556 131.16 68.1462C131.403 68.7368 131.839 69.2278 132.397 69.5395C133.545 70.3093 136.414 71.4519 136.414 72.0293C136.414 72.6066 137.948 78.9153 141.225 81.2127" fill="#828282"/>
<path d="M146.205 81.2127C146.205 81.2127 144.864 73.7493 144.1 72.4142C143.336 71.079 136.444 67.4345 135.079 66.6708C133.714 65.907 131.471 64.9507 131.056 66.2859C130.879 66.9 130.916 67.5556 131.16 68.1462C131.403 68.7368 131.839 69.2278 132.397 69.5395C133.545 70.3093 136.414 71.4519 136.414 72.0293C136.414 72.6066 137.948 78.9153 141.225 81.2127" stroke="#263238" stroke-linecap="round" stroke-linejoin="round"/>
<path d="M148.46 85.5969C148.46 85.5969 138.922 90.4442 139.547 91.6952C139.995 92.7465 140.31 93.8496 140.486 94.9788C140.486 94.9788 150.493 90.4442 150.649 89.506C150.806 88.5679 149.555 86.2224 148.46 85.5969Z" fill="#BFBFBF" stroke="#263238" stroke-linecap="round" stroke-linejoin="round"/>
<path d="M189.091 67.8496C189.091 67.8496 188.051 77.2375 188.051 81.2007C188.051 85.164 189.326 92.038 197.228 89.3437C205.131 86.6495 207.452 76.8225 207.452 74.91C207.452 72.9976 208.288 59.051 208.288 59.051C208.288 59.051 202.653 65.1072 198.064 66.5626C195.16 67.4634 192.131 67.8978 189.091 67.8496Z" fill="white" stroke="#263238" stroke-linecap="round" stroke-linejoin="round"/>
<path d="M198.064 66.5923C195.158 67.483 192.13 67.9073 189.091 67.8493C189.091 67.8493 188.917 69.437 188.706 71.578C190.745 72.6725 193.517 73.0153 195.64 73.1296C201.245 73.4484 205.022 67.9816 208.011 63.8319C208.168 61.1677 208.288 59.0808 208.288 59.0808C208.288 59.0808 202.653 65.137 198.064 66.5923Z" fill="#263238" stroke="#263238" stroke-linecap="round" stroke-linejoin="round"/>
<path d="M186.986 38.1581C186.986 38.1581 189.422 30.6827 192.146 27.9343C194.871 25.1858 211 24.7588 213.231 26.7314C215.463 28.704 217.441 32.9199 217.94 36.39C218.44 39.8601 214.47 47.8167 214.47 47.8167L186.986 38.1581Z" fill="#263238" stroke="#263238" stroke-linecap="round" stroke-linejoin="round"/>
<path d="M186.379 42.5963C186.379 42.5963 184.502 48.2315 184.707 52.2188C184.911 56.2061 185.753 60.1513 185.753 62.6531C185.753 65.155 185.338 67.2479 187.63 69.1242C189.662 70.7841 193.114 71.2292 195.64 71.3735C201.552 71.7043 205.431 65.6 208.498 61.4022C208.498 61.4022 214.338 60.8008 214.759 57.439C215.18 54.0771 214.224 52.5495 214.224 52.5495L214.47 47.8406C214.47 47.8406 194.937 38.2181 186.379 42.5963Z" fill="white" stroke="#263238" stroke-linecap="round" stroke-linejoin="round"/>
<path d="M208.083 47.8168C208.083 47.8168 206.826 53.6565 207.662 54.0774C208.498 54.4984 212.883 52.8205 213.075 50.9441C213.267 49.0678 210.976 47.6063 208.083 47.8168Z" fill="#263238" stroke="#263238" stroke-linecap="round" stroke-linejoin="round"/>
<path d="M185.483 43.3602C185.483 43.3602 195.147 44.8457 202.827 47.3235C210.507 49.8012 214.224 52.5256 214.224 52.5256C214.224 52.5256 216.702 48.3158 216.455 46.0846C216.208 43.8533 205.564 39.8901 196.879 38.1581C188.195 36.426 186.722 36.6666 185.982 37.6589C185.242 38.6512 184.244 42.3679 185.483 43.3602Z" fill="#263238" stroke="#263238" stroke-linecap="round" stroke-linejoin="round"/>
<path d="M192.429 48.0212C192.429 48.0212 187.215 56.5792 188.466 57.8301C189.717 59.0811 192.639 59.917 193.475 59.502" stroke="#263238" stroke-linecap="round" stroke-linejoin="round"/>
<path d="M188.466 61.5888C188.466 61.5888 199.291 64.7161 201.612 58.8765" stroke="#263238" stroke-linecap="round" stroke-linejoin="round"/>
<path d="M199.94 58.0405L203.074 59.2914" stroke="#263238" stroke-linecap="round" stroke-linejoin="round"/>
<path d="M199.002 51.359C199.52 51.359 199.94 50.6589 199.94 49.7953C199.94 48.9318 199.52 48.2317 199.002 48.2317C198.484 48.2317 198.064 48.9318 198.064 49.7953C198.064 50.6589 198.484 51.359 199.002 51.359Z" fill="#263238"/>
<path d="M190.655 47.7084C190.655 48.5744 190.234 49.2781 189.717 49.2781C189.199 49.2781 188.778 48.5744 188.778 47.7084C188.778 46.8424 189.199 46.1448 189.717 46.1448C190.234 46.1448 190.655 46.8484 190.655 47.7084Z" fill="#263238"/>
<path d="M198.064 44.8938C198.064 44.8938 203.278 45.1043 203.074 49.278" stroke="#263238" stroke-linecap="round" stroke-linejoin="round"/>
<path d="M191.178 43.6429C191.178 43.6429 189.927 42.807 187.215 45.7298" stroke="#263238" stroke-linecap="round" stroke-linejoin="round"/>
<path d="M116.093 175.711H110.187V260.666H116.093V175.711Z" fill="white" stroke="#263238" stroke-linecap="round" stroke-linejoin="round"/>
<path d="M120.182 175.711H114.276V260.666H120.182V175.711Z" fill="#263238" stroke="#263238" stroke-linecap="round" stroke-linejoin="round"/>
<path d="M144.256 175.711H138.351V260.666H144.256V175.711Z" fill="white" stroke="#263238" stroke-linecap="round" stroke-linejoin="round"/>
<path d="M148.346 175.711H142.44V260.666H148.346V175.711Z" fill="#263238" stroke="#263238" stroke-linecap="round" stroke-linejoin="round"/>
<path d="M206.947 175.711H201.041V260.666H206.947V175.711Z" fill="white" stroke="#263238" stroke-linecap="round" stroke-linejoin="round"/>
<path d="M211.036 175.711H205.13V260.666H211.036V175.711Z" fill="#263238" stroke="#263238" stroke-linecap="round" stroke-linejoin="round"/>
<path d="M235.116 175.711H229.211V260.666H235.116V175.711Z" fill="white" stroke="#263238" stroke-linecap="round" stroke-linejoin="round"/>
<path d="M239.2 175.711H233.294V260.666H239.2V175.711Z" fill="#263238" stroke="#263238" stroke-linecap="round" stroke-linejoin="round"/>
<path d="M245.106 172.53H106.548V179.801H245.106V172.53Z" fill="white" stroke="#263238" stroke-linecap="round" stroke-linejoin="round"/>
<path d="M245.112 172.53H207.404V179.801H245.112V172.53Z" fill="#263238" stroke="#263238" stroke-linecap="round" stroke-linejoin="round"/>
<path d="M247.379 170.714H102.008V174.346H247.379V170.714Z" fill="white" stroke="#263238" stroke-linecap="round" stroke-linejoin="round"/>
<path d="M247.379 170.714H211.036V174.346H247.379V170.714Z" fill="#263238" stroke="#263238" stroke-linecap="round" stroke-linejoin="round"/>
<path d="M165.215 137.065H155.533V133.794H165.215C165.633 133.794 166.034 133.96 166.329 134.255C166.625 134.551 166.791 134.951 166.791 135.369V135.52C166.783 135.932 166.614 136.325 166.319 136.614C166.024 136.903 165.628 137.065 165.215 137.065Z" fill="white" stroke="#263238" stroke-linecap="round" stroke-linejoin="round"/>
<path d="M115.491 127.286H161.198V165.824C161.198 167.1 160.691 168.324 159.789 169.226C158.886 170.129 157.663 170.636 156.387 170.636H120.302C119.026 170.636 117.803 170.129 116.9 169.226C115.998 168.324 115.491 167.1 115.491 165.824V127.286Z" fill="white" stroke="#263238" stroke-linecap="round" stroke-linejoin="round"/>
<path d="M155.731 127.286V165.632C155.731 166.956 155.205 168.225 154.269 169.162C153.333 170.098 152.063 170.624 150.74 170.624H154.444C155.768 170.622 157.036 170.096 157.972 169.16C158.908 168.224 159.434 166.955 159.436 165.632V127.286H155.731Z" fill="#263238" stroke="#263238" stroke-linecap="round" stroke-linejoin="round"/>
<path d="M122.57 127.286V165.632C122.57 168.386 126.569 170.624 129.324 170.624H125.643C124.319 170.624 123.048 170.098 122.111 169.162C121.174 168.226 120.647 166.956 120.645 165.632V127.286H122.57Z" fill="#263238" stroke="#263238" stroke-linecap="round" stroke-linejoin="round"/>
<path d="M160.879 125.693H115.798C114.742 125.693 113.885 126.549 113.885 127.605V127.755C113.885 128.812 114.742 129.668 115.798 129.668H160.879C161.935 129.668 162.792 128.812 162.792 127.755V127.605C162.792 126.549 161.935 125.693 160.879 125.693Z" fill="white" stroke="#263238" stroke-linecap="round" stroke-linejoin="round"/>
<path d="M109.826 133.794H119.509V137.065H109.826C109.408 137.065 109.007 136.899 108.712 136.604C108.416 136.308 108.25 135.908 108.25 135.49V135.339C108.258 134.927 108.428 134.534 108.722 134.245C109.017 133.956 109.413 133.794 109.826 133.794Z" fill="white" stroke="#263238" stroke-linecap="round" stroke-linejoin="round"/>
<path d="M115.455 133.794H125.138V137.065H115.455C115.248 137.065 115.043 137.025 114.852 136.945C114.661 136.866 114.487 136.75 114.341 136.604C114.195 136.458 114.079 136.284 113.999 136.093C113.92 135.901 113.879 135.697 113.879 135.49V135.339C113.887 134.927 114.057 134.534 114.351 134.245C114.646 133.956 115.042 133.794 115.455 133.794Z" fill="white" stroke="#263238" stroke-linecap="round" stroke-linejoin="round"/>
<path d="M161.054 128.267H115.617V128.88H161.054V128.267Z" fill="#263238" stroke="#263238" stroke-linecap="round" stroke-linejoin="round"/>
<path d="M139.042 112.353C138.17 111.289 137.148 110.399 137.148 108.318C137.117 107.225 137.482 106.157 138.176 105.311" stroke="#263238" stroke-linecap="round" stroke-linejoin="round"/>
<path d="M137.148 122.83C137.148 119.222 140.251 119.222 140.251 115.577C140.253 115.143 140.201 114.711 140.095 114.29" stroke="#263238" stroke-linecap="round" stroke-linejoin="round"/>
<path d="M148.328 109.322C148.1 108.707 147.99 108.054 148.003 107.398" stroke="#263238" stroke-linecap="round" stroke-linejoin="round"/>
<path d="M148.003 122.83C148.003 118.975 151.1 118.975 151.1 115.114C151.1 112.961 150.138 112.011 149.296 110.904" stroke="#263238" stroke-linecap="round" stroke-linejoin="round"/>
<path d="M124.747 108.919C124.681 108.568 124.649 108.212 124.651 107.855C124.64 107.24 124.742 106.629 124.951 106.051" stroke="#263238" stroke-linecap="round" stroke-linejoin="round"/>
<path d="M124.651 122.83C124.651 119.089 127.754 119.089 127.754 115.348C127.758 114.66 127.625 113.978 127.364 113.341C127.103 112.704 126.718 112.125 126.232 111.638" stroke="#263238" stroke-linecap="round" stroke-linejoin="round"/>
<path d="M227.773 137.065H218.091V133.794H227.773C228.191 133.794 228.592 133.96 228.888 134.255C229.183 134.551 229.349 134.951 229.349 135.369V135.52C229.341 135.932 229.172 136.325 228.877 136.614C228.582 136.903 228.186 137.065 227.773 137.065Z" fill="white" stroke="#263238" stroke-linecap="round" stroke-linejoin="round"/>
<path d="M178.055 127.286H223.762V165.824C223.762 167.1 223.255 168.324 222.353 169.226C221.451 170.129 220.227 170.636 218.951 170.636H182.866C181.59 170.636 180.367 170.129 179.464 169.226C178.562 168.324 178.055 167.1 178.055 165.824V127.286Z" fill="white" stroke="#263238" stroke-linecap="round" stroke-linejoin="round"/>
<path d="M218.295 127.286V165.632C218.294 166.956 217.766 168.226 216.829 169.162C215.892 170.098 214.622 170.624 213.298 170.624H216.99C218.314 170.624 219.584 170.098 220.52 169.162C221.456 168.225 221.982 166.956 221.982 165.632V127.286H218.295Z" fill="#263238" stroke="#263238" stroke-linecap="round" stroke-linejoin="round"/>
<path d="M185.116 127.286V165.632C185.116 168.386 189.109 170.624 191.87 170.624H188.183C186.86 170.622 185.591 170.096 184.655 169.16C183.719 168.224 183.193 166.955 183.191 165.632V127.286H185.116Z" fill="#263238" stroke="#263238" stroke-linecap="round" stroke-linejoin="round"/>
<path d="M223.437 125.693H178.356C177.3 125.693 176.443 126.549 176.443 127.605V127.755C176.443 128.812 177.3 129.668 178.356 129.668H223.437C224.493 129.668 225.35 128.812 225.35 127.755V127.605C225.35 126.549 224.493 125.693 223.437 125.693Z" fill="white" stroke="#263238" stroke-linecap="round" stroke-linejoin="round"/>
<path d="M172.384 133.794H182.067V137.065H172.384C171.966 137.065 171.565 136.899 171.27 136.604C170.974 136.308 170.808 135.908 170.808 135.49V135.339C170.816 134.927 170.986 134.534 171.28 134.245C171.575 133.956 171.971 133.794 172.384 133.794Z" fill="white" stroke="#263238" stroke-linecap="round" stroke-linejoin="round"/>
<path d="M178.013 133.794H187.696V137.065H178.013C177.595 137.065 177.194 136.899 176.899 136.604C176.603 136.308 176.437 135.908 176.438 135.49V135.339C176.445 134.927 176.615 134.534 176.909 134.245C177.204 133.956 177.6 133.794 178.013 133.794Z" fill="white" stroke="#263238" stroke-linecap="round" stroke-linejoin="round"/>
<path d="M223.618 128.267H178.182V128.88H223.618V128.267Z" fill="#263238" stroke="#263238" stroke-linecap="round" stroke-linejoin="round"/>
<path d="M201.005 117.947H200.933C200.395 117.947 199.958 118.383 199.958 118.921V121.693C199.958 122.231 200.395 122.668 200.933 122.668H201.005C201.543 122.668 201.979 122.231 201.979 121.693V118.921C201.979 118.383 201.543 117.947 201.005 117.947Z" fill="#5C5C5C" stroke="#263238" stroke-linecap="round" stroke-linejoin="round"/>
<path d="M178.428 125.717L180.377 124.357C182.679 122.745 185.421 121.88 188.231 121.88H213.851C217.397 121.88 220.806 123.255 223.359 125.717H178.428Z" fill="#5C5C5C" stroke="#263238" stroke-linecap="round" stroke-linejoin="round"/>
<path d="M61.6235 91.7312C61.6235 91.7312 64.1193 96.0072 65.1838 98.497C66.2483 100.987 67.6796 104.198 66.2543 103.483C64.829 102.767 63.4036 101.883 62.1587 101.883C60.9138 101.883 60.559 103.308 60.0237 102.238C59.4885 101.167 61.6235 91.7312 61.6235 91.7312Z" fill="#5DA885" stroke="#263238" stroke-linecap="round" stroke-linejoin="round"/>
<path d="M57.8888 245.221C57.8888 245.221 66.4347 250.207 69.6462 251.278C72.8577 252.348 74.9867 254.285 75.1611 256.263L75.3415 258.218L75.1611 259.643H36.16C35.567 258.172 35.2647 256.599 35.27 255.012C35.27 252.342 36.6953 251.807 37.411 250.201C38.1266 248.595 55.2125 243.977 55.2125 243.977L57.8888 245.221Z" fill="#5DA885" stroke="#263238" stroke-linecap="round" stroke-linejoin="round"/>
<path d="M35.6428 258.026C35.7726 258.572 35.9455 259.107 36.16 259.625H75.1551L75.3355 258.2L75.1551 256.245C74.9807 254.285 72.8457 252.324 69.6402 251.26V258.026H35.6428Z" fill="white" stroke="#263238" stroke-linecap="round" stroke-linejoin="round"/>
<path d="M67.4992 160.285C67.4992 160.285 68.7501 162.42 67.6796 163.292C66.6091 164.165 66.0739 164.543 66.0739 164.543C66.8147 166.034 67.0043 167.738 66.6091 169.355C65.8995 171.85 62.694 182.351 62.694 187.337C62.694 192.322 63.0488 204.609 61.0882 211.555C59.1277 218.501 55.2125 233.633 55.7478 237.019C56.283 240.404 58.2436 242.004 58.5984 242.894C58.9009 243.996 59.0208 245.14 58.9533 246.28C58.9533 247.345 55.2125 252.156 48.982 254.465C42.7514 256.775 37.5553 257.142 36.3525 256.781C35.1497 256.42 33.8627 254.291 34.0371 252.511C34.2115 250.731 34.7648 250.388 34.7648 249.137C34.7648 247.886 31.9141 235.786 32.269 229.02C32.6238 222.254 38.3251 211.922 38.3251 206.936C38.3251 201.951 36.5209 193.23 35.1196 188.064C33.7183 182.898 33.3154 181.834 33.3154 181.299C33.3154 180.763 31.3548 176.668 30.1099 173.282C28.865 169.896 27.1029 166.696 27.1029 163.136C27.1266 160.753 27.3054 158.375 27.6382 156.015L29.2439 151.92C29.2439 151.92 66.0979 157.08 66.6332 157.08C67.1684 157.08 67.4992 160.285 67.4992 160.285Z" fill="#263238" stroke="#263238" stroke-linecap="round" stroke-linejoin="round"/>
<path d="M70.6445 143.897C70.6445 143.897 80.0445 139.2 81.572 137.546C83.0996 135.892 81.572 132.085 82.0772 132.085C82.5824 132.085 85.6315 130.816 85.8901 129.68C86.1487 128.543 85.6315 126.631 86.1427 126.631C86.6539 126.631 92.4935 125.235 94.7789 125.362C97.0642 125.488 103.162 125.741 105.195 122.824C107.228 119.907 108.737 117.357 108.737 116.593C108.737 115.829 108.136 115.613 106.843 116.485C105.55 117.357 94.8931 117.61 91.9703 117.61C89.0475 117.61 87.9108 117.225 86.6359 118.211C85.3609 119.197 80.5436 124.057 79.9062 124.057C79.2687 124.057 77.2419 123.804 76.0993 125.073C75.1947 124.49 74.1229 124.221 73.0502 124.309C71.5226 124.562 64.5403 128.375 64.5403 128.375L70.6445 143.897Z" fill="#9E9E9E" stroke="#263238" stroke-linecap="round" stroke-linejoin="round"/>
<path d="M61.2686 99.3871C61.4246 99.6122 61.5692 99.845 61.7017 100.085C62.8579 102.189 63.6163 104.489 63.9389 106.869C64.6546 111.68 65.0094 120.581 66.6091 126.811C68.2088 133.042 74.0906 142.478 73.2246 150.314C72.3585 158.15 70.0191 160.64 65.9235 160.821C61.8279 161.001 33.159 154.945 28.8891 153.7C24.6191 152.455 23.723 153.165 24.0778 149.069C24.4327 144.974 28.8891 130.191 29.0635 124.851C29.2379 119.51 25.3227 107.759 30.8677 99.2127C36.4126 90.6667 42.4447 84.9654 45.8246 85.6811C49.2045 86.3968 58.9532 93.1566 61.2686 99.3871Z" fill="white" stroke="#263238" stroke-linecap="round" stroke-linejoin="round"/>
<path d="M53.0775 47.041C53.0775 47.041 59.3081 44.3708 64.2937 45.0804C69.2793 45.7901 74.265 49.7112 75.3355 52.3815C76.406 55.0517 77.2961 56.2966 77.2961 58.0768C77.2961 59.8569 77.296 60.3922 77.1156 60.9274L76.9412 61.4627C76.9412 61.4627 78.7454 65.7387 78.8958 67.158C79.0461 68.5773 78.8958 69.299 77.6509 69.299H76.406C76.406 69.299 74.8002 79.9799 73.399 81.2248C71.9977 82.4697 67.7037 82.6501 67.7037 82.6501C67.7037 82.6501 63.6081 84.4543 62.718 90.1316C61.8279 95.8088 60.7574 102.418 60.7574 102.418C60.7574 102.418 51.6762 85.8556 50.6118 82.2953C49.5473 78.735 49.006 76.2392 49.006 76.2392C50.0235 74.5641 50.6409 72.6769 50.8102 70.7243C50.9906 67.7173 47.0695 61.2823 48.14 55.2321C49.2105 49.182 53.0775 47.041 53.0775 47.041Z" fill="#999999" stroke="#263238" stroke-linecap="round" stroke-linejoin="round"/>
<path d="M73.3749 81.2127C74.4815 80.2505 75.6903 73.617 76.1835 70.6821C75.0228 69.7981 69.6161 68.9441 67.4992 69.9965C65.3823 71.049 63.0488 72.8472 62.688 72.3119C62.3271 71.7767 60.6252 63.772 61.858 62.3527C63.0909 60.9334 66.134 60.9213 65.4183 58.6059C64.7027 56.2905 61.6235 57.5475 61.4491 55.5989C61.2747 53.6504 63.2533 51.8582 60.9138 51.329C59.3055 51.0451 57.6518 51.1671 56.1026 51.6838C55.5734 51.6838 54.5029 50.9681 54.5029 49.188C54.5035 48.7182 54.3443 48.2622 54.0514 47.8949C53.7585 47.5276 53.3493 47.271 52.8911 47.1672C52.1033 47.6784 49.0241 49.9758 48.0799 55.2441C47.0094 61.2942 50.9305 67.7052 50.7501 70.7363C50.6052 72.5309 50.0782 74.2739 49.2045 75.8482C50.0276 76.2103 50.9472 76.2907 51.8206 76.0767C53.6248 75.5415 53.4203 73.9417 53.9556 72.6908C54.4908 71.4399 56.271 71.0911 55.3809 68.7757C54.4908 66.4603 56.8062 63.9644 57.8707 64.1449C58.9352 64.3253 60.0117 66.1054 59.4765 67.1519C58.9412 68.1983 57.6723 73.3824 57.6723 76.0527C57.6723 78.7229 58.3819 81.0383 59.9877 81.9284C61.5934 82.8185 63.8186 83.6183 65.4003 84.334C66.0343 83.6487 66.7859 83.0824 67.6195 82.6621C67.6195 82.6621 71.9556 82.4757 73.3749 81.2127Z" fill="#263238" stroke="#263238" stroke-linecap="round" stroke-linejoin="round"/>
<path d="M73.9102 62.1724C73.9102 62.864 73.6696 63.4233 73.3749 63.4233C73.0802 63.4233 72.8457 62.864 72.8457 62.1724C72.8457 61.4808 73.0802 60.9275 73.3749 60.9275C73.6696 60.9275 73.9102 61.4868 73.9102 62.1724Z" fill="#263238"/>
<path d="M70.7047 58.9607C71.6121 58.4524 72.5668 58.0334 73.5553 57.7098C74.4454 57.5354 75.8707 58.245 75.6903 56.8197C75.5099 55.3944 73.7357 55.9296 71.5948 56.4649C69.4538 57.0001 69.4598 58.257 70.7047 58.9607Z" fill="white" stroke="#263238" stroke-linecap="round" stroke-linejoin="round"/>
<path d="M68.3893 61.8174C68.9522 62.1433 69.5602 62.3845 70.1935 62.5331" stroke="#263238" stroke-linecap="round" stroke-linejoin="round"/>
<path d="M70.1694 63.2427C69.8638 63.4599 69.5127 63.6047 69.1428 63.6662C68.7729 63.7277 68.3939 63.7042 68.0344 63.5975" stroke="#263238" stroke-linecap="round" stroke-linejoin="round"/>
<path d="M67.6856 55.2199C67.6856 55.2199 70.4461 53.0128 73.8981 53.5661" stroke="#263238" stroke-linecap="round" stroke-linejoin="round"/>
<path d="M69.2012 51.7438C69.2012 51.7438 72.6532 50.7816 74.1748 51.7438" stroke="#263238" stroke-linecap="round" stroke-linejoin="round"/>
<path d="M56.283 50.2464C55.7478 50.2464 54.6833 49.5307 54.6833 47.7506C54.6833 45.9704 52.5423 44.9059 50.9425 46.3252C49.3428 47.7445 49.6976 48.6406 48.0919 48.9955C46.4861 49.3503 43.1063 48.2858 42.571 51.6717C42.0358 55.0576 42.7514 55.9417 42.0358 56.8318C41.3201 57.7218 37.5854 59.3276 37.7658 62.3526C37.9462 65.3777 40.0812 65.3597 39.3655 67.1639C38.6498 68.9681 36.8757 71.2594 39.5459 73.0396C42.2162 74.8197 46.6666 71.085 47.2018 72.5104C47.7371 73.9357 50.2088 75.1806 52.013 74.6453C53.8173 74.1101 53.6188 72.5104 54.154 71.2594C54.6893 70.0085 56.4694 69.6597 55.5794 67.3443C54.6893 65.0289 56.9987 62.5331 58.0692 62.7135C59.1397 62.8939 60.2042 64.6741 59.6749 65.7205C59.1457 66.767 57.8707 71.951 57.8707 74.6213C57.8707 77.2915 58.5804 79.6069 60.1801 80.497C61.7798 81.3871 64.2757 82.3012 65.8814 82.9928C67.4872 83.6844 72.4668 85.8375 74.0725 84.4121C75.6783 82.9868 76.5624 79.6009 76.5624 76.4014C76.5624 73.202 77.4524 70.1709 76.388 69.2808C75.3235 68.3907 69.7725 67.4766 67.6616 68.5651C65.5506 69.6537 63.2112 71.4158 62.8503 70.8806C62.4895 70.3453 61.2446 64.65 62.4895 63.2247C63.7344 61.7993 66.7655 60.0192 66.0498 57.7038C65.3341 55.3884 61.7798 56.1041 61.5994 54.1435C61.419 52.1829 63.4036 50.4027 61.0642 49.8735C59.4642 49.5998 57.8212 49.7279 56.283 50.2464Z" fill="white" stroke="#263238" stroke-linecap="round" stroke-linejoin="round"/>
<path d="M69.1049 71.0791C69.6367 71.8753 70.3996 72.4895 71.2909 72.8389C72.1823 73.1884 73.1594 73.2563 74.0906 73.0337" stroke="#263238" stroke-linecap="round" stroke-linejoin="round"/>
<path d="M59.9516 65.1613C59.9516 65.1613 59.6749 62.6775 56.6378 62.2625C53.6007 61.8475 53.3241 66.8151 54.569 69.1666C55.8139 71.5181 57.4678 70.2672 57.4678 70.2672" fill="#999999"/>
<path d="M59.9516 65.1613C59.9516 65.1613 59.6749 62.6775 56.6378 62.2625C53.6007 61.8475 53.3241 66.8151 54.569 69.1666C55.8139 71.5181 57.4678 70.2672 57.4678 70.2672" stroke="#263238" stroke-linecap="round" stroke-linejoin="round"/>
<path d="M48.6271 74.459C48.6271 74.459 55.0381 89.4159 56.8183 93.3371C58.5984 97.2582 61.2687 100.103 61.2687 104.018C61.2687 107.933 62.8744 116.485 62.8744 125.031C62.8744 133.577 65.0094 145.864 64.2937 150.669C63.5781 155.474 61.828 159.04 61.828 161.001C61.828 162.962 62.0024 165.812 61.1123 165.812C60.2222 165.812 47.4063 164.922 37.9643 162.607C28.5222 160.291 23.0073 159.221 23.0073 157.796C23.0073 156.37 23.5426 153.7 23.5426 152.984C23.5426 152.269 21.4076 150.849 22.4781 146.044C23.5486 141.239 24.6131 126.276 24.9679 115.595C25.3227 104.914 29.5987 95.472 32.4494 91.1961C35.3 86.9201 40.2676 83.901 40.2676 83.901C40.2676 83.901 37.423 80.5151 40.8029 78.3801C43.306 76.8734 45.9219 75.5625 48.6271 74.459Z" fill="#5DA885" stroke="#263238" stroke-linecap="round" stroke-linejoin="round"/>
<path d="M25.4791 152.918C36.1584 157.495 47.6416 159.901 59.26 159.997" stroke="#263238" stroke-linecap="round" stroke-linejoin="round"/>
<path d="M29.5386 154.53L28.8109 159.419" stroke="#263238" stroke-linecap="round" stroke-linejoin="round"/>
<path d="M34.9152 156.731L34.1815 160.64" stroke="#263238" stroke-linecap="round" stroke-linejoin="round"/>
<path d="M40.7788 158.192L40.2917 162.102" stroke="#263238" stroke-linecap="round" stroke-linejoin="round"/>
<path d="M46.1554 159.173L45.9088 162.595" stroke="#263238" stroke-linecap="round" stroke-linejoin="round"/>
<path d="M52.2596 159.906V163.569" stroke="#263238" stroke-linecap="round" stroke-linejoin="round"/>
<path d="M56.8183 93.3371C55.014 89.4159 48.6271 74.459 48.6271 74.459C45.924 75.5628 43.3101 76.8737 40.8089 78.3801C37.429 80.5151 40.2736 83.901 40.2736 83.901C40.2736 83.901 46.3298 92.8018 48.2903 96.8974C50.2509 100.993 49.7157 100.103 51.4958 102.953C53.276 105.804 54.1661 108.114 54.7013 107.223C55.2366 106.333 59.6869 102.057 60.7514 102.412C60.8777 102.454 61.01 102.49 61.1544 102.527C60.583 99.3391 58.3639 96.741 56.8183 93.3371Z" fill="#5DA885" stroke="#263238" stroke-linecap="round" stroke-linejoin="round"/>
<path d="M81.2112 111.674H114.89C114.89 111.674 112.039 115.415 109.369 117.02C106.699 118.626 103.138 118.825 103.138 118.825H94.2075C94.2075 118.825 87.0869 118.62 81.2112 111.674Z" fill="#5DA885" stroke="#263238" stroke-linecap="round" stroke-linejoin="round"/>
<path d="M80.1407 120.935C81.6428 119.617 82.9079 118.05 83.8814 116.305C84.3755 115.275 85.0974 114.371 85.9924 113.661C86.8874 112.952 87.9322 112.455 89.0475 112.209C90.8517 111.854 96.7034 111.319 97.7739 110.784C98.8444 110.248 99.5781 112.744 99.0188 113.634C98.4595 114.524 96.1681 115.234 94.7428 115.439C93.82 115.608 92.9939 116.116 92.4274 116.864C93.2316 117.485 94.1342 117.967 95.0976 118.289C96.7034 118.824 99.554 118.999 100.799 118.289C102.044 117.58 106.494 114.368 106.855 116.485C107.216 118.602 105.249 119.492 104.179 120.755C103.108 122.018 101.172 124.315 100.444 124.496C99.7164 124.676 94.0331 124.676 90.4728 125.031C86.9125 125.386 82.6546 127.882 82.6546 127.882L79.4491 120.935H80.1407Z" fill="#999999" stroke="#263238" stroke-linecap="round" stroke-linejoin="round"/>
<path d="M73.5554 123.606C73.5554 123.606 79.2507 119.865 80.1407 120.936C81.0308 122.006 85.3068 126.631 84.2363 128.591C83.1658 130.552 76.2256 133.757 76.2256 133.757L73.5554 123.606Z" fill="#5DA885" stroke="#263238" stroke-linecap="round" stroke-linejoin="round"/>
<path d="M46.6665 97.0776C46.6665 97.0776 50.7621 101.528 52.3678 105.624C53.9736 109.719 57.7083 121.26 58.2436 122.18C58.7788 123.1 59.6689 124.676 59.6689 124.676C59.6689 124.676 68.9245 122.18 70.8851 122.006C72.8456 121.831 74.8002 123.606 76.0451 125.921C77.29 128.236 81.3916 135.177 79.6114 136.963C77.8313 138.749 62.3391 146.766 57.7083 148.534C53.0775 150.302 48.4467 149.243 46.2816 145.527C44.1166 141.81 35.0654 121.134 33.2853 116.323C31.5051 111.511 31.6795 107.596 32.3952 106.171" fill="#5DA885"/>
<path d="M46.6665 97.0776C46.6665 97.0776 50.7621 101.528 52.3678 105.624C53.9736 109.719 57.7083 121.26 58.2436 122.18C58.7788 123.1 59.6689 124.676 59.6689 124.676C59.6689 124.676 68.9245 122.18 70.8851 122.006C72.8456 121.831 74.8002 123.606 76.0451 125.921C77.29 128.236 81.3916 135.177 79.6114 136.963C77.8313 138.749 62.3391 146.766 57.7083 148.534C53.0775 150.302 48.4467 149.243 46.2816 145.527C44.1166 141.81 35.0654 121.134 33.2853 116.323C31.5051 111.511 31.6795 107.596 32.3952 106.171" stroke="#263238" stroke-linecap="round" stroke-linejoin="round"/>
<path d="M53.0775 136.428C53.9676 130.726 59.693 124.676 59.693 124.676C59.693 124.676 53.282 127.882 51.141 130.552" stroke="#263238" stroke-linecap="round" stroke-linejoin="round"/>
<path d="M5.28998 260.66H279.927" stroke="#263238" stroke-linecap="round" stroke-linejoin="round"/>
</svg>
