<svg height="512pt" viewBox="0 -16 512 511" width="512pt" xmlns="http://www.w3.org/2000/svg"><path d="m370.144531 324.523438c-.328125.109374-.65625.226562-.988281.332031v11.089843c0 11.441407-9.386719 20.75-20.925781 20.75-1.726563 0-3.394531-.230468-5-.625 2.191406 7.300782 3.378906 15.015626 3.378906 22.976563v100.941406h76.039063c2.550781 0 4.621093-2.074219 4.621093-4.632812v-82.457031c0-34.136719-24.699219-62.574219-57.125-68.375zm0 0" fill="#c0272d"/><path d="m348.226562 328.140625c-7.667968 0-15.039062-1.285156-21.921874-3.621094v1.378907c7.96875 8.890624 13.921874 19.566406 17.253906 31.296874 1.507812.324219 3.066406.5 4.667968.5 12.113282 0 21.929688-9.738281 21.929688-21.75v-11.425781c-6.886719 2.335938-14.253906 3.621094-21.929688 3.621094zm0 0" fill="#aa8465"/><path d="m371.425781 130.992188h-22.835937c.574218 3.515624.882812 7.117187.882812 10.792968v47.574219l.574219.269531c5.820313 2.742188 9.582031 8.628906 9.582031 14.992188v10.253906h52.410156c2 0 3.625 1.632812 3.625 3.632812v10.917969h7.515626c2.363281 0 4.59375.578125 6.5625 1.589844v-41.609375c-.003907-32.261719-26.113282-58.414062-58.316407-58.414062zm0 0" fill="#ffc502"/><path d="m423.175781 228.425781h-7.515625v32.339844c0 3.84375-.34375 7.605469-.976562 11.273437h8.492187c8.464844 0 15.324219-6.804687 15.324219-15.199218v-13.214844c0-8.398438-6.859375-15.199219-15.324219-15.199219zm0 0" fill="#aa8465"/><path d="m412.039062 213.878906h-52.414062v6.0625c0 9.160156-7.515625 16.617188-16.757812 16.617188h-9.507813l-.140625.832031c-4.296875 25.375-20.902344 46.730469-44.125 57.46875 2.148438 3.652344 4.632812 7.089844 7.410156 10.269531 11.039063 4.371094 20.777344 11.101563 28.667969 19.535156 7.207031 2.570313 14.96875 3.976563 23.058594 3.976563 37.734375 0 68.433593-30.449219 68.433593-67.875v-42.253906c0-2.5625-2.070312-4.632813-4.625-4.632813zm0 0" fill="#c6a07d"/><g fill="#775436"><path d="m354.667969 283.601562h-7.875c-6.894531 0-12.5-5.609374-12.5-12.5v-10.84375c0-4.144531 3.355469-7.5 7.5-7.5 4.140625 0 7.5 3.355469 7.5 7.5v8.34375h5.375c4.140625 0 7.5 3.355469 7.5 7.5 0 4.140626-3.359375 7.5-7.5 7.5zm0 0"/><path d="m348.230469 310.566406c-6.429688 0-12.859375-1.996094-18.34375-5.980468-3.351563-2.433594-4.09375-7.125-1.660157-10.476563 2.4375-3.347656 7.125-4.09375 10.476563-1.65625 5.699219 4.136719 13.355469 4.136719 19.050781 0 3.351563-2.4375 8.042969-1.691406 10.476563 1.65625 2.433593 3.351563 1.691406 8.042969-1.660157 10.476563-5.484374 3.984374-11.914062 5.980468-18.339843 5.980468zm0 0"/><path d="m384.089844 259.976562c-4.144532 0-7.5-3.359374-7.5-7.5v-13.203124c0-4.144532 3.355468-7.5 7.5-7.5 4.140625 0 7.5 3.355468 7.5 7.5v13.203124c0 4.140626-3.359375 7.5-7.5 7.5zm0 0"/></g><path d="m165.390625 379.050781c0-20.832031 8.03125-40.003906 21.371094-54.3125-.359375-.070312-.710938-.152343-1.074219-.214843-6.882812 2.332031-14.25 3.617187-21.917969 3.617187s-15.035156-1.285156-21.917969-3.617187c-32.421874 5.800781-57.121093 34.238281-57.121093 68.375v82.457031c0 2.558593 2.070312 4.632812 4.621093 4.632812h76.039063zm0 0" fill="#c0272d"/><path d="m185.695312 325.898438v-1.378907c-6.882812 2.335938-14.253906 3.621094-21.925781 3.621094s-15.042969-1.285156-21.925781-3.621094v12.640625c0 12.011719 9.816406 21.746094 21.925781 21.746094 1.472657 0 2.914063-.144531 4.308594-.421875 3.253906-12.234375 9.355469-23.367187 17.617187-32.585937zm0 0" fill="#aa8465"/><path d="m152.371094 204.621094c0-6.363282 3.761718-12.25 9.582031-14.992188l.574219-.269531v-47.574219c0-3.675781.3125-7.277344.882812-10.792968h-22.832031c-32.207031 0-58.316406 26.152343-58.316406 58.414062v41.609375c1.96875-1.011719 4.195312-1.589844 6.5625-1.589844h7.515625v-10.917969c0-2 1.625-3.632812 3.621094-3.632812h36.671874c5.34375 0 10.640626-.738281 15.742188-2.152344v-8.101562zm0 0" fill="#775436"/><path d="m96.335938 260.765625v-32.339844h-7.511719c-8.464844 0-15.324219 6.800781-15.324219 15.195313v13.21875c0 8.394531 6.859375 15.195312 15.324219 15.195312h8.488281c-.628906-3.664062-.976562-7.425781-.976562-11.269531zm0 0" fill="#aa8465"/><path d="m215.496094 305.128906c2.777344-3.179687 5.261718-6.613281 7.410156-10.269531-23.222656-10.738281-39.828125-32.09375-44.125-57.46875l-.140625-.832031h-9.507813c-9.242187 0-16.761718-7.457032-16.761718-16.617188v-8.257812c-5.097656 1.4375-10.390625 2.191406-15.738282 2.191406h-36.671874c-2.554688 0-4.625 2.074219-4.625 4.632812v42.257813c0 37.425781 30.699218 67.875 68.433593 67.875 8.089844 0 15.851563-1.40625 23.0625-3.976563 7.886719-8.433593 17.625-15.164062 28.664063-19.535156zm0 0" fill="#c6a07d"/><path d="m170.207031 282.261719h-7.875c-6.894531 0-12.5-5.605469-12.5-12.5v-10.84375c0-4.140625 3.359375-7.5 7.5-7.5s7.5 3.359375 7.5 7.5v8.34375h5.375c4.144531 0 7.5 3.359375 7.5 7.5 0 4.144531-3.355469 7.5-7.5 7.5zm0 0" fill="#634229"/><path d="m163.769531 308.371094c-8.941406 0-17.882812-3.113282-25.175781-9.34375-3.148438-2.691406-3.523438-7.425782-.832031-10.574219 2.691406-3.148437 7.425781-3.523437 10.574219-.832031 8.941406 7.636718 21.925781 7.636718 30.867187 0 3.152344-2.691406 7.886719-2.316406 10.574219.832031 2.691406 3.148437 2.320312 7.882813-.832032 10.574219-7.292968 6.230468-16.234374 9.34375-25.175781 9.34375zm0 0" fill="#634229"/><path d="m127.910156 259.976562c-4.140625 0-7.5-3.359374-7.5-7.5v-13.203124c0-4.144532 3.359375-7.5 7.5-7.5 4.144532 0 7.5 3.355468 7.5 7.5v13.203124c0 4.140626-3.355468 7.5-7.5 7.5zm0 0" fill="#634229"/><path d="m277.4375 299.183594c-6.820312 1.925781-14.003906 2.980468-21.4375 2.980468s-14.621094-1.054687-21.4375-2.980468c-39.515625 5.035156-70.171875 38.917968-70.171875 79.867187v100.9375h183.21875v-100.9375c0-40.949219-30.65625-74.832031-70.171875-79.867187zm0 0" fill="#ef5050"/><path d="m256 302.164062c-8.894531 0-17.4375-1.5-25.414062-4.222656v15.09375c0 13.921875 11.378906 25.207032 25.410156 25.207032 14.039062 0 25.417968-11.285157 25.417968-25.207032v-15.09375c-7.976562 2.722656-16.519531 4.222656-25.414062 4.222656zm0 0" fill="#f7c39f"/><path d="m282.882812 74.082031h-53.765624c-37.328126 0-67.589844 30.308594-67.589844 67.703125v48.054688c2.285156-1.164063 4.867187-1.832032 7.605468-1.832032h8.550782v-12.492187c0-2.410156 1.953125-4.367187 4.355468-4.367187h42.503907c15.859375 0 31.355469-5.574219 43.625-15.691407.777343-.644531 1.757812-.996093 2.765625-.996093.371094 0 .746094.046874 1.109375.140624 1.34375.355469 2.449219 1.347657 2.953125 2.648438 3.902344 10.101562 13.476562 16.625 24.394531 16.625h30.566406c2.402344 0 4.359375 1.960938 4.359375 4.367188v9.769531h8.546875c2.742188 0 5.324219.667969 7.609375 1.828125v-48.054688c0-37.394531-30.261718-67.703125-67.589844-67.703125zm0 0" fill="#424f59"/><path d="m177.683594 224.492188v-37.484376h-8.550782c-9.808593 0-17.761718 7.886719-17.761718 17.613282v15.320312c0 9.730469 7.953125 17.617188 17.761718 17.617188h9.679688c-.730469-4.25-1.128906-8.613282-1.128906-13.066406zm0 0" fill="#f7c39f"/><path d="m342.867188 187.007812h-8.550782v37.484376c0 4.453124-.398437 8.816406-1.128906 13.066406h9.679688c9.8125 0 17.761718-7.886719 17.761718-17.617188v-15.320312c0-9.726563-7.953125-17.613282-17.761718-17.613282zm0 0" fill="#f7c39f"/><path d="m256 303.164062c-43.734375 0-79.316406-35.292968-79.316406-78.671874v-48.976563c0-2.964844 2.398437-5.367187 5.355468-5.367187h42.507813c15.628906 0 30.894531-5.492188 42.984375-15.464844.972656-.800782 2.175781-1.222656 3.40625-1.222656.453125 0 .910156.058593 1.359375.171874 1.660156.4375 3.015625 1.648438 3.636719 3.257813 3.75 9.710937 12.960937 15.984375 23.460937 15.984375h30.566407c2.957031 0 5.355468 2.402344 5.355468 5.367188v46.25c0 43.378906-35.582031 78.671874-79.316406 78.671874zm0 0" fill="#ffd5b3"/><path d="m263.460938 227.621094h-9.921876c-6.894531 0-12.5-5.605469-12.5-12.5v-13.359375c0-4.144531 3.355469-7.5 7.5-7.5 4.140626 0 7.5 3.355469 7.5 7.5v10.859375h7.421876c4.140624 0 7.5 3.359375 7.5 7.5 0 4.144531-3.359376 7.5-7.5 7.5zm0 0" fill="#775436"/><path d="m214.4375 218.714844c-4.140625 0-7.5-3.355469-7.5-7.5v-15.304688c0-4.140625 3.359375-7.5 7.5-7.5s7.5 3.359375 7.5 7.5v15.304688c0 4.144531-3.359375 7.5-7.5 7.5zm0 0" fill="#775436"/><path d="m297.5625 218.714844c-4.140625 0-7.5-3.355469-7.5-7.5v-15.304688c0-4.140625 3.359375-7.5 7.5-7.5s7.5 3.359375 7.5 7.5v15.304688c0 4.144531-3.359375 7.5-7.5 7.5zm0 0" fill="#775436"/><path d="m256 283.476562c-14.550781 0-26.382812-11.753906-26.382812-26.210937v-11.292969c0-2.410156 1.949218-4.363281 4.351562-4.363281h44.0625c2.402344 0 4.351562 1.953125 4.351562 4.363281v11.292969c0 14.457031-11.835937 26.210937-26.382812 26.210937zm0 0" fill="#ff9f69"/><path d="m255.980469 50.699219c-4.140625 0-7.5-3.359375-7.5-7.5v-35.199219c0-4.144531 3.359375-7.5 7.5-7.5 4.144531 0 7.5 3.355469 7.5 7.5v35.199219c0 4.140625-3.355469 7.5-7.5 7.5zm0 0" fill="#ffc502"/><path d="m337.925781 67.097656c-.957031 0-1.933593-.183594-2.871093-.574218-3.828126-1.585938-5.640626-5.976563-4.054688-9.800782l13.488281-32.5c1.585938-3.824218 5.976563-5.640625 9.800781-4.050781 3.824219 1.585937 5.640626 5.976563 4.054688 9.800781l-13.488281 32.5c-1.195313 2.882813-3.988281 4.625-6.929688 4.625zm0 0" fill="#fcdb67"/><path d="m407.316406 113.773438c-1.925781 0-3.847656-.734376-5.3125-2.207032-2.925781-2.933594-2.917968-7.683594.015625-10.605468l24.90625-24.8125c2.933594-2.925782 7.683594-2.917969 10.605469.019531 2.921875 2.933593 2.914062 7.683593-.019531 10.605469l-24.902344 24.8125c-1.464844 1.460937-3.378906 2.1875-5.292969 2.1875zm0 0" fill="#ffc502"/><path d="m456.003906 182.550781c-2.953125 0-5.753906-1.753906-6.945312-4.65625-1.570313-3.832031.261718-8.214843 4.09375-9.785156l29.996094-12.296875c3.835937-1.574219 8.214843.261719 9.785156 4.09375 1.570312 3.832031-.261719 8.210938-4.09375 9.785156l-29.996094 12.296875c-.929688.378907-1.894531.5625-2.839844.5625zm0 0" fill="#fcdb67"/><path d="m57.003906 177.5625c-1.007812 0-2.023437-.199219-3.003906-.628906l-28.804688-12.601563c-3.796874-1.660156-5.523437-6.082031-3.867187-9.875 1.660156-3.796875 6.082031-5.527343 9.878906-3.867187l28.804688 12.601562c3.792969 1.660156 5.523437 6.082032 3.867187 9.875-1.234375 2.820313-3.988281 4.496094-6.875 4.496094zm0 0" fill="#fcdb67"/><path d="m108.15625 110.324219c-1.972656 0-3.941406-.773438-5.414062-2.3125l-24.328126-25.390625c-2.863281-2.988282-2.761718-7.734375.226563-10.601563 2.992187-2.867187 7.738281-2.765625 10.605469.226563l24.324218 25.390625c2.867188 2.988281 2.765626 7.734375-.226562 10.601562-1.449219 1.394531-3.320312 2.085938-5.1875 2.085938zm0 0" fill="#ffc502"/><path d="m178.597656 65.257812c-3.003906 0-5.839844-1.816406-6.992187-4.785156l-12.734375-32.804687c-1.5-3.863281.414062-8.207031 4.277344-9.707031 3.863281-1.5 8.203124.417968 9.703124 4.277343l12.734376 32.804688c1.5 3.859375-.414063 8.207031-4.277344 9.703125-.890625.347656-1.808594.511718-2.710938.511718zm0 0" fill="#fcdb67"/><path d="m504.5 265.804688h-35.117188c-4.144531 0-7.5-3.359376-7.5-7.5 0-4.144532 3.355469-7.5 7.5-7.5h35.117188c4.140625 0 7.5 3.355468 7.5 7.5 0 4.140624-3.359375 7.5-7.5 7.5zm0 0" fill="#ffc502"/><path d="m42.617188 265.804688h-35.117188c-4.140625 0-7.5-3.359376-7.5-7.5 0-4.144532 3.359375-7.5 7.5-7.5h35.117188c4.140624 0 7.5 3.355468 7.5 7.5 0 4.140624-3.359376 7.5-7.5 7.5zm0 0" fill="#ffc502"/><path d="m256 441.496094c-1.121094 0-2.242188-.421875-3.097656-1.273438l-36.6875-36.457031c-8.449219-8.398437-8.449219-22.0625 0-30.460937 4.09375-4.070313 9.535156-6.3125 15.328125-6.3125 5.785156 0 11.230469 2.242187 15.324219 6.3125l9.132812 9.074218 9.132812-9.074218c4.09375-4.070313 9.535157-6.3125 15.324219-6.3125 5.789063 0 11.234375 2.242187 15.328125 6.3125 8.449219 8.398437 8.449219 22.0625 0 30.460937l-36.6875 36.457031c-.855468.851563-1.980468 1.273438-3.097656 1.273438zm0 0" fill="#fff"/></svg>