<svg width="52" height="42" viewBox="0 0 52 42" fill="none" xmlns="http://www.w3.org/2000/svg">
<path d="M46.8 14.7884V5.14286C46.7984 3.77937 46.2501 2.47217 45.2752 1.50803C44.3004 0.543896 42.9786 0.00155966 41.6 0H10.4C9.02136 0.00155966 7.69963 0.543896 6.72479 1.50803C5.74994 2.47217 5.20158 3.77937 5.2 5.14286V14.7884C3.71265 15.1704 2.39537 16.0294 1.45441 17.231C0.51346 18.4325 0.00195963 19.9088 0 21.4286V33.4286C0.00103225 34.3376 0.366601 35.209 1.0165 35.8518C1.66641 36.4946 2.54757 36.8561 3.46667 36.8571H5.2V42H8.66667V36.8571H43.3333V42H46.8V36.8571H48.5333C49.4524 36.8561 50.3336 36.4946 50.9835 35.8518C51.6334 35.209 51.999 34.3376 52 33.4286V21.4286C51.998 19.9088 51.4865 18.4325 50.5456 17.231C49.6046 16.0294 48.2874 15.1704 46.8 14.7884ZM10.4 33.4286H3.46667V21.4286C3.46667 20.5193 3.8319 19.6472 4.48203 19.0042C5.13216 18.3612 6.01392 18 6.93333 18C7.85275 18 8.73451 18.3612 9.38464 19.0042C10.0348 19.6472 10.4 20.5193 10.4 21.4286V33.4286ZM38.1333 33.4286H13.8667V23.1429H38.1333V33.4286ZM38.3527 19.7143H13.6473C13.3352 18.5293 12.7091 17.4481 11.8336 16.5822C10.9581 15.7163 9.86485 15.0971 8.66667 14.7884V5.14286C8.66721 4.68837 8.85001 4.25264 9.17495 3.93127C9.4999 3.6099 9.94046 3.42911 10.4 3.42857H41.6C42.0595 3.42911 42.5001 3.6099 42.8251 3.93127C43.15 4.25264 43.3328 4.68837 43.3333 5.14286V14.7884C42.1352 15.0971 41.0419 15.7163 40.1664 16.5822C39.2909 17.4481 38.6648 18.5293 38.3527 19.7143ZM48.5333 33.4286H41.6V21.4286C41.6 20.5193 41.9652 19.6472 42.6154 19.0042C43.2655 18.3612 44.1473 18 45.0667 18C45.9861 18 46.8678 18.3612 47.518 19.0042C48.1681 19.6472 48.5333 20.5193 48.5333 21.4286L48.5355 33.4286H48.5333Z" fill="#3D6E57"/>
</svg>
