<svg width="245" height="48" viewBox="0 0 245 48" fill="none" xmlns="http://www.w3.org/2000/svg">
<path d="M68.624 17C69.968 17 71.1627 17.3413 72.208 18.024C73.2747 18.7067 74.096 19.6667 74.672 20.904C75.2693 22.1413 75.568 23.5707 75.568 25.192C75.568 26.792 75.28 28.2 74.704 29.416C74.128 30.632 73.3067 31.5707 72.24 32.232C71.1947 32.8933 69.9893 33.224 68.624 33.224C67.4507 33.224 66.416 32.9787 65.52 32.488C64.624 31.976 63.9413 31.2507 63.472 30.312V37.448C63.472 37.896 63.3227 38.248 63.024 38.504C62.7467 38.7813 62.3733 38.92 61.904 38.92C61.4133 38.92 61.008 38.7813 60.688 38.504C60.3893 38.2267 60.24 37.8533 60.24 37.384V18.632C60.24 18.1627 60.3893 17.7893 60.688 17.512C60.9867 17.2133 61.3813 17.064 61.872 17.064C62.3413 17.064 62.7253 17.2133 63.024 17.512C63.3227 17.7893 63.472 18.1627 63.472 18.632V19.944C63.9413 19.0053 64.624 18.28 65.52 17.768C66.416 17.256 67.4507 17 68.624 17ZM67.856 30.664C69.264 30.664 70.352 30.1947 71.12 29.256C71.888 28.296 72.272 26.9413 72.272 25.192C72.272 23.4213 71.8773 22.0453 71.088 21.064C70.32 20.0827 69.2427 19.592 67.856 19.592C66.448 19.592 65.36 20.072 64.592 21.032C63.8453 21.992 63.472 23.3573 63.472 25.128C63.472 26.8987 63.8453 28.264 64.592 29.224C65.36 30.184 66.448 30.664 67.856 30.664ZM80.7783 33.16C80.3089 33.16 79.9143 33.032 79.5943 32.776C79.2956 32.52 79.1463 32.136 79.1463 31.624V11.848C79.1463 11.336 79.2956 10.952 79.5943 10.696C79.9143 10.4187 80.3089 10.28 80.7783 10.28C81.2476 10.28 81.6316 10.4187 81.9303 10.696C82.2289 10.952 82.3783 11.336 82.3783 11.848V31.624C82.3783 32.136 82.2289 32.52 81.9303 32.776C81.6316 33.032 81.2476 33.16 80.7783 33.16ZM93.4563 17C95.5256 17 97.0616 17.5227 98.0643 18.568C99.0883 19.6133 99.6003 21.2027 99.6003 23.336V31.624C99.6003 32.1147 99.4616 32.4987 99.1843 32.776C98.9069 33.032 98.5229 33.16 98.0323 33.16C97.5629 33.16 97.1896 33.0213 96.9123 32.744C96.6349 32.4667 96.4963 32.0933 96.4963 31.624V30.44C96.0909 31.336 95.4829 32.0293 94.6723 32.52C93.8829 32.9893 92.9549 33.224 91.8883 33.224C90.8643 33.224 89.9256 33.0213 89.0723 32.616C88.2403 32.1893 87.5789 31.6133 87.0883 30.888C86.5976 30.1627 86.3523 29.3413 86.3523 28.424C86.3309 27.272 86.6189 26.376 87.2163 25.736C87.8136 25.0747 88.7843 24.6053 90.1283 24.328C91.4723 24.0293 93.3389 23.88 95.7283 23.88H96.4643V22.952C96.4643 21.7573 96.2189 20.8933 95.7283 20.36C95.2376 19.8267 94.4483 19.56 93.3603 19.56C92.6136 19.56 91.9096 19.656 91.2483 19.848C90.5869 20.04 89.8616 20.3173 89.0723 20.68C88.4963 21 88.0909 21.16 87.8563 21.16C87.5363 21.16 87.2696 21.0427 87.0563 20.808C86.8643 20.5733 86.7682 20.2747 86.7682 19.912C86.7682 19.592 86.8536 19.3147 87.0243 19.08C87.2163 18.824 87.5149 18.5787 87.9203 18.344C88.6669 17.9387 89.5416 17.6187 90.5443 17.384C91.5469 17.128 92.5176 17 93.4563 17ZM92.4643 30.824C93.6376 30.824 94.5976 30.4293 95.3443 29.64C96.0909 28.8293 96.4643 27.7947 96.4643 26.536V25.704H95.8883C94.2243 25.704 92.9443 25.7787 92.0483 25.928C91.1523 26.0773 90.5123 26.3333 90.1283 26.696C89.7443 27.0373 89.5523 27.5387 89.5523 28.2C89.5523 28.968 89.8296 29.5973 90.3843 30.088C90.9389 30.5787 91.6323 30.824 92.4643 30.824ZM112.437 17C116.171 17 118.037 19.1013 118.037 23.304V31.624C118.037 32.1147 117.888 32.4987 117.589 32.776C117.312 33.032 116.917 33.16 116.405 33.16C115.915 33.16 115.52 33.0213 115.221 32.744C114.944 32.4667 114.805 32.0933 114.805 31.624V23.464C114.805 22.1413 114.539 21.1707 114.005 20.552C113.493 19.9333 112.683 19.624 111.573 19.624C110.272 19.624 109.227 20.0293 108.437 20.84C107.648 21.6507 107.253 22.7387 107.253 24.104V31.624C107.253 32.0933 107.104 32.4667 106.805 32.744C106.528 33.0213 106.144 33.16 105.653 33.16C105.163 33.16 104.768 33.0213 104.469 32.744C104.171 32.4667 104.021 32.0933 104.021 31.624V18.6C104.021 18.152 104.171 17.7893 104.469 17.512C104.789 17.2133 105.184 17.064 105.653 17.064C106.123 17.064 106.496 17.2027 106.773 17.48C107.051 17.7573 107.189 18.12 107.189 18.568V19.88C107.701 18.9413 108.416 18.2267 109.333 17.736C110.251 17.2453 111.285 17 112.437 17ZM130.107 30.696C130.576 30.7387 130.907 30.8667 131.099 31.08C131.312 31.272 131.419 31.5493 131.419 31.912C131.419 32.3387 131.248 32.6693 130.907 32.904C130.587 33.1173 130.107 33.2027 129.467 33.16L128.603 33.096C126.875 32.968 125.584 32.4453 124.731 31.528C123.877 30.5893 123.451 29.2133 123.451 27.4V19.88H121.531C120.592 19.88 120.123 19.464 120.123 18.632C120.123 18.248 120.24 17.9493 120.475 17.736C120.731 17.5013 121.083 17.384 121.531 17.384H123.451V14.088C123.451 13.5973 123.589 13.2133 123.867 12.936C124.165 12.6587 124.56 12.52 125.051 12.52C125.541 12.52 125.936 12.6587 126.235 12.936C126.533 13.2133 126.683 13.5973 126.683 14.088V17.384H129.851C130.299 17.384 130.64 17.5013 130.875 17.736C131.131 17.9493 131.259 18.248 131.259 18.632C131.259 19.0373 131.131 19.3467 130.875 19.56C130.64 19.7733 130.299 19.88 129.851 19.88H126.683V27.624C126.683 28.6267 126.885 29.3627 127.291 29.832C127.717 30.3013 128.357 30.568 129.211 30.632L130.107 30.696ZM145.964 29.064C146.263 29.064 146.508 29.1813 146.7 29.416C146.892 29.6507 146.988 29.9493 146.988 30.312C146.988 30.9307 146.604 31.4533 145.836 31.88C145.089 32.3067 144.268 32.6373 143.372 32.872C142.497 33.1067 141.655 33.224 140.844 33.224C138.369 33.224 136.417 32.5093 134.988 31.08C133.559 29.6293 132.844 27.656 132.844 25.16C132.844 23.56 133.153 22.1413 133.772 20.904C134.412 19.6667 135.297 18.7067 136.428 18.024C137.58 17.3413 138.881 17 140.332 17C142.423 17 144.076 17.672 145.292 19.016C146.508 20.36 147.116 22.1733 147.116 24.456C147.116 25.3093 146.732 25.736 145.964 25.736H136.076C136.289 29.0427 137.879 30.696 140.844 30.696C141.633 30.696 142.316 30.5893 142.892 30.376C143.468 30.1627 144.076 29.8853 144.716 29.544C144.78 29.5013 144.951 29.416 145.228 29.288C145.527 29.1387 145.772 29.064 145.964 29.064ZM140.396 19.368C139.159 19.368 138.167 19.7627 137.42 20.552C136.673 21.3413 136.225 22.4507 136.076 23.88H144.332C144.268 22.4293 143.895 21.32 143.212 20.552C142.551 19.7627 141.612 19.368 140.396 19.368ZM165.899 33.224C164.363 33.224 163.008 32.8933 161.835 32.232C160.683 31.5707 159.787 30.632 159.147 29.416C158.528 28.1787 158.219 26.7493 158.219 25.128C158.219 23.4853 158.528 22.056 159.147 20.84C159.787 19.6027 160.683 18.6533 161.835 17.992C163.008 17.3307 164.363 17 165.899 17C167.435 17 168.779 17.3307 169.931 17.992C171.104 18.6533 172 19.6027 172.619 20.84C173.259 22.056 173.579 23.4853 173.579 25.128C173.579 26.7493 173.259 28.1787 172.619 29.416C172 30.632 171.104 31.5707 169.931 32.232C168.779 32.8933 167.435 33.224 165.899 33.224ZM165.899 30.664C167.328 30.664 168.416 30.1947 169.163 29.256C169.931 28.3173 170.315 26.9413 170.315 25.128C170.315 23.336 169.931 21.9707 169.163 21.032C168.395 20.072 167.307 19.592 165.899 19.592C164.491 19.592 163.403 20.072 162.635 21.032C161.867 21.9707 161.483 23.336 161.483 25.128C161.483 26.9413 161.856 28.3173 162.603 29.256C163.371 30.1947 164.47 30.664 165.899 30.664ZM193.999 17C195.364 17 196.57 17.3307 197.615 17.992C198.66 18.6533 199.471 19.592 200.047 20.808C200.644 22.024 200.943 23.4427 200.943 25.064C200.943 26.664 200.644 28.0827 200.047 29.32C199.471 30.5573 198.65 31.5173 197.583 32.2C196.538 32.8827 195.343 33.224 193.999 33.224C192.826 33.224 191.791 32.9787 190.895 32.488C189.999 31.976 189.316 31.2507 188.847 30.312V31.592C188.847 32.0613 188.698 32.4453 188.399 32.744C188.122 33.0213 187.738 33.16 187.247 33.16C186.756 33.16 186.362 33.0213 186.063 32.744C185.764 32.4453 185.615 32.0613 185.615 31.592V11.816C185.615 11.3467 185.764 10.9733 186.063 10.696C186.383 10.4187 186.788 10.28 187.279 10.28C187.748 10.28 188.122 10.4187 188.399 10.696C188.698 10.952 188.847 11.304 188.847 11.752V19.944C189.316 19.0053 189.999 18.28 190.895 17.768C191.791 17.256 192.826 17 193.999 17ZM193.231 30.664C194.618 30.664 195.695 30.1733 196.463 29.192C197.252 28.2107 197.647 26.8347 197.647 25.064C197.647 23.3147 197.263 21.9707 196.495 21.032C195.727 20.072 194.639 19.592 193.231 19.592C191.823 19.592 190.735 20.072 189.967 21.032C189.22 21.992 188.847 23.3573 188.847 25.128C188.847 26.8987 189.22 28.264 189.967 29.224C190.735 30.184 191.823 30.664 193.231 30.664ZM216.745 29.064C217.044 29.064 217.289 29.1813 217.481 29.416C217.673 29.6507 217.769 29.9493 217.769 30.312C217.769 30.9307 217.385 31.4533 216.617 31.88C215.871 32.3067 215.049 32.6373 214.153 32.872C213.279 33.1067 212.436 33.224 211.625 33.224C209.151 33.224 207.199 32.5093 205.769 31.08C204.34 29.6293 203.625 27.656 203.625 25.16C203.625 23.56 203.935 22.1413 204.553 20.904C205.193 19.6667 206.079 18.7067 207.209 18.024C208.361 17.3413 209.663 17 211.113 17C213.204 17 214.857 17.672 216.073 19.016C217.289 20.36 217.897 22.1733 217.897 24.456C217.897 25.3093 217.513 25.736 216.745 25.736H206.857C207.071 29.0427 208.66 30.696 211.625 30.696C212.415 30.696 213.097 30.5893 213.673 30.376C214.249 30.1627 214.857 29.8853 215.497 29.544C215.561 29.5013 215.732 29.416 216.009 29.288C216.308 29.1387 216.553 29.064 216.745 29.064ZM211.177 19.368C209.94 19.368 208.948 19.7627 208.201 20.552C207.455 21.3413 207.007 22.4507 206.857 23.88H215.113C215.049 22.4293 214.676 21.32 213.993 20.552C213.332 19.7627 212.393 19.368 211.177 19.368ZM239.379 17C242.877 17 244.627 19.1013 244.627 23.304V31.624C244.627 32.1147 244.477 32.4987 244.179 32.776C243.88 33.032 243.485 33.16 242.995 33.16C242.525 33.16 242.141 33.032 241.843 32.776C241.544 32.4987 241.395 32.1147 241.395 31.624V23.336C241.395 22.0347 241.16 21.096 240.691 20.52C240.221 19.9227 239.485 19.624 238.483 19.624C237.309 19.624 236.381 20.0293 235.699 20.84C235.016 21.6293 234.675 22.7173 234.675 24.104V31.624C234.675 32.1147 234.525 32.4987 234.227 32.776C233.928 33.032 233.533 33.16 233.043 33.16C232.573 33.16 232.189 33.032 231.891 32.776C231.592 32.4987 231.443 32.1147 231.443 31.624V23.336C231.443 22.0347 231.208 21.096 230.739 20.52C230.269 19.9227 229.533 19.624 228.531 19.624C227.357 19.624 226.419 20.0293 225.715 20.84C225.032 21.6293 224.691 22.7173 224.691 24.104V31.624C224.691 32.1147 224.541 32.4987 224.243 32.776C223.944 33.032 223.56 33.16 223.091 33.16C222.621 33.16 222.227 33.032 221.907 32.776C221.608 32.4987 221.459 32.1147 221.459 31.624V18.6C221.459 18.1307 221.619 17.7573 221.939 17.48C222.259 17.2027 222.643 17.064 223.091 17.064C223.539 17.064 223.901 17.2027 224.179 17.48C224.477 17.736 224.627 18.0987 224.627 18.568V19.752C225.096 18.856 225.747 18.1733 226.579 17.704C227.411 17.2347 228.371 17 229.459 17C230.653 17 231.635 17.2453 232.403 17.736C233.192 18.2267 233.779 18.984 234.163 20.008C234.632 19.0907 235.325 18.3653 236.243 17.832C237.16 17.2773 238.205 17 239.379 17Z" fill="#2F2F2F"/>
<g clip-path="url(#clip0)">
<path d="M29.6243 22.7807C24.9397 22.7807 24.1569 28.6334 20.7754 30.5899L20.7708 30.6002L31.1627 35.3119L38.37 32.1095C35.6569 28.8246 33.5926 22.7807 29.6243 22.7807Z" fill="#918787"/>
<path d="M31.1627 35.312C37.3947 33.0748 36.2451 32.8562 38.3869 32.2595C42.3721 31.1505 46.3245 33.3695 47.0398 34.4026C47.4063 34.9332 43.1389 35.3832 33.8167 41.129C29.1593 43.9996 24.9078 44.9445 21.0932 44.9052C13.6384 44.8273 7.8542 41.0615 3.98055 41.0615H0.9375V32.6242H2.90058C9.18729 32.6242 12.0185 28.4056 15.5621 28.4056C17.9827 28.4056 18.9324 29.7368 20.7707 30.6002C21.5339 30.9583 22.4507 31.2368 23.6891 31.3061C28.0371 31.548 32.1058 32.3233 32.1058 34.0304C32.1058 34.517 31.7983 34.9464 31.1627 35.312Z" fill="#FCE8D0"/>
<path d="M38.0615 3.09369C33.4013 3.09369 29.6242 6.87078 29.6242 11.531C29.6242 6.87078 25.8471 3.09369 21.1869 3.09369H18.3745C18.3745 7.75388 22.1516 11.531 26.8118 11.531C28.3652 11.531 29.6242 12.79 29.6242 14.3434C29.6242 12.79 30.8833 11.531 32.4367 11.531C37.0968 11.531 40.8739 7.75388 40.8739 3.09369H38.0615Z" fill="#AAF9DD"/>
<path d="M38.999 39.0928C39.5168 39.0928 39.9365 38.6731 39.9365 38.1553C39.9365 37.6375 39.5168 37.2178 38.999 37.2178C38.4813 37.2178 38.0615 37.6375 38.0615 38.1553C38.0615 38.6731 38.4813 39.0928 38.999 39.0928Z" fill="black"/>
<path d="M0.937476 41.999H3.98052C5.46295 41.999 7.37859 42.6504 9.59676 43.4046C12.7302 44.4701 16.6298 45.796 21.0835 45.8425C25.8926 45.8918 30.214 44.4507 34.3084 41.9271C34.8085 41.6188 35.3097 41.3164 35.7981 41.028C36.2439 40.7648 36.3919 40.1899 36.1286 39.7442C35.8654 39.2983 35.2908 39.1503 34.8447 39.4136C34.3462 39.708 33.8348 40.0167 33.3247 40.331C29.2841 42.8213 25.2916 44.0114 21.103 43.9678C16.9492 43.9245 13.3637 42.7053 10.2003 41.6296C7.82465 40.8217 5.77288 40.124 3.98052 40.124H1.87495V33.5617H2.90055C6.73539 33.5617 9.39098 32.0781 11.5249 30.886C13.0067 30.0581 14.2867 29.3431 15.5621 29.3431C16.9467 29.3431 17.7296 29.8502 18.721 30.4923C20.2071 31.4548 21.4468 32.1195 23.637 32.2422C29.8281 32.5866 31.1682 33.7589 31.1682 34.0305C31.1682 34.2722 30.6103 34.528 30.53 34.5883C29.2974 35.2091 26.175 35.9054 18.3745 35.9054C17.8569 35.9054 17.4371 36.3251 17.4371 36.8429C17.4371 37.3606 17.8569 37.7803 18.3745 37.7803C25.2686 37.7803 29.5793 37.253 31.5466 36.1702C33.1982 35.5785 35.3476 34.8469 36.864 33.9306C39.5802 32.2871 42.9945 32.7598 45.4291 34.2616C44.3767 34.6688 43.5664 34.9856 42.4311 35.4835C41.9569 35.6915 41.7412 36.2444 41.9491 36.7186C42.1567 37.192 42.7094 37.4088 43.1842 37.2005C44.3555 36.6869 45.2831 36.3282 45.9603 36.0663C46.5915 35.8222 47.0333 35.6514 47.3424 35.4739C48.0589 35.0623 48.148 34.3577 47.8103 33.8689C46.7254 32.3021 42.5876 30.4597 38.8365 31.191C38.1737 30.3327 37.5408 29.3049 36.8751 28.2236C35.133 25.3935 33.337 22.4774 30.5614 21.9341V14.3434C30.5614 13.3096 31.4025 12.4685 32.4364 12.4685C37.6057 12.4685 41.8112 8.26297 41.8112 3.09373C41.8112 2.57596 41.3914 2.15625 40.8737 2.15625H38.0613C34.3551 2.15625 31.1446 4.31816 29.624 7.4469C28.1037 4.31816 24.8931 2.15625 21.187 2.15625H18.3745C17.8569 2.15625 17.4371 2.57596 17.4371 3.09373C17.4371 8.26297 21.6425 12.4685 26.8118 12.4685C27.8457 12.4685 28.6868 13.3096 28.6868 14.3434V21.9141C25.9873 22.3298 24.5248 24.5215 23.2199 26.4788C22.426 27.6694 21.6708 28.8011 20.7073 29.5136C20.3749 29.3288 20.0636 29.1279 19.7403 28.9186C18.6392 28.2055 17.5007 27.4681 15.5621 27.4681C13.7984 27.4681 12.2498 28.3332 10.6104 29.2492C8.56525 30.3917 6.24725 31.6867 2.90055 31.6867H0.937476C0.419802 31.6867 0 32.1065 0 32.6242V41.0615C0 41.5793 0.419802 41.999 0.937476 41.999ZM26.8118 10.5935C22.9939 10.5935 19.8332 7.7257 19.3703 4.0312H21.187C25.1741 4.0312 28.4447 7.15862 28.6739 11.0894C28.125 10.774 27.4891 10.5935 26.8118 10.5935ZM38.0615 4.03026H39.8782C39.4152 7.72476 36.2546 10.5935 32.4367 10.5935C31.7594 10.5935 31.1235 10.774 30.5746 11.0894C30.8038 7.15862 34.0744 4.03026 38.0615 4.03026ZM24.7798 27.519C26.1396 25.4795 27.3138 23.7182 29.6242 23.7182C31.9003 23.7182 33.6178 26.5082 35.2786 29.2065C35.8156 30.0789 36.3658 30.9721 36.9428 31.7825C36.5827 31.9404 36.232 32.1216 35.8939 32.3263C35.0995 32.8063 34.05 33.2496 33.0076 33.6455C32.6512 31.7696 29.6102 30.6966 23.7416 30.3702C23.3762 30.3497 23.0326 30.309 22.7045 30.2469C23.4986 29.4383 24.1466 28.4687 24.7798 27.519Z" fill="black"/>
</g>
<defs>
<clipPath id="clip0">
<rect width="48" height="48" fill="white"/>
</clipPath>
</defs>
</svg>
