<svg id="Capa_1" enable-background="new 0 0 512.013 512.013" height="512" viewBox="0 0 512.013 512.013" width="512" xmlns="http://www.w3.org/2000/svg"><g><g><path d="m316 243c-49.97 0-58.32 62.43-94.39 83.3l-.05.11 110.85 50.26 76.88-34.16c-28.94-35.04-50.96-99.51-93.29-99.51z" fill="#918787"/><path d="m332.41 376.67c66.477-23.864 54.214-26.196 77.06-32.56 42.51-11.83 84.67 11.84 92.3 22.86 3.91 5.66-41.61 10.46-141.05 71.75-49.68 30.62-95.03 40.7-135.72 40.28-79.52-.83-141.22-41-182.54-41h-32.46v-90h20.94c67.06 0 97.26-45 135.06-45 25.82 0 35.95 14.2 55.56 23.41 8.14 3.82 17.92 6.79 31.13 7.53 46.38 2.58 89.78 10.85 89.78 29.06 0 5.19-3.28 9.77-10.06 13.67z" fill="#fce8d0"/><path d="m406 33c-49.71 0-90 40.29-90 90 0-49.71-40.29-90-90-90h-30c0 49.71 40.29 90 90 90 16.57 0 30 13.43 30 30 0-16.57 13.43-30 30-30 49.71 0 90-40.29 90-90z" fill="#aaf9dd"/></g><g><circle cx="416" cy="407" r="10"/><path d="m10 448h32.46c15.813 0 36.247 6.949 59.908 14.994 33.424 11.365 75.021 25.509 122.528 26.005 51.299.525 97.395-14.847 141.07-41.766 5.334-3.288 10.68-6.514 15.89-9.59 4.755-2.808 6.334-8.94 3.525-13.695-2.807-4.756-8.936-6.335-13.695-3.526-5.317 3.14-10.772 6.433-16.214 9.786-43.1 26.564-85.688 39.258-130.368 38.793-44.308-.462-82.554-13.467-116.298-24.941-25.341-8.618-47.227-16.06-66.346-16.06h-22.46v-70h10.94c40.906 0 69.233-15.826 91.995-28.542 15.807-8.831 29.46-16.458 43.065-16.458 14.769 0 23.121 5.41 33.696 12.259 15.852 10.267 29.076 17.357 52.438 18.666 66.04 3.674 80.335 16.178 80.335 19.076 0 2.578-5.951 5.307-6.807 5.95-13.148 6.622-46.455 14.049-129.662 14.049-5.522 0-10 4.477-10 10s4.478 10 10 10c73.539 0 119.521-5.625 140.506-17.175 17.617-6.312 40.545-14.116 56.72-23.89 28.973-17.531 65.394-12.489 91.363 3.531-11.226 4.343-19.869 7.723-31.979 13.034-5.058 2.218-7.359 8.116-5.142 13.174 2.215 5.05 8.11 7.363 13.175 5.141 12.494-5.479 22.389-9.305 29.613-12.099 6.733-2.603 11.445-4.425 14.742-6.319 7.643-4.39 8.594-11.906 4.991-17.12-11.572-16.713-55.71-36.366-95.723-28.565-7.07-9.156-13.821-20.119-20.922-31.653-18.582-30.189-37.74-61.295-67.347-67.09v-80.969c0-11.028 8.972-20 20-20 55.141 0 100-44.86 100-100 0-5.523-4.478-10-10-10h-30c-39.533 0-73.78 23.061-90 56.435-16.217-33.374-50.464-56.435-89.997-56.435h-30c-5.522 0-10 4.477-10 10 0 55.14 44.859 100 100 100 11.028 0 20 8.972 20 20v80.756c-28.795 4.434-44.396 27.813-58.315 48.691-8.468 12.7-16.524 24.772-26.802 32.372-3.545-1.971-6.866-4.114-10.314-6.347-11.746-7.606-23.89-15.472-44.569-15.472-18.813 0-35.332 9.228-52.819 18.999-21.816 12.187-46.542 26.001-82.241 26.001h-20.94c-5.522 0-10 4.477-10 10v90c0 5.523 4.478 10 10 10zm276-335c-40.726 0-74.44-30.591-79.378-70h19.378c42.531 0 77.418 33.36 79.863 75.289-5.855-3.364-12.639-5.289-19.863-5.289zm120-70.01h19.378c-4.938 39.409-38.652 70.01-79.378 70.01-7.224 0-14.008 1.925-19.863 5.289 2.445-41.929 37.332-75.299 79.863-75.299zm-141.675 250.553c14.504-21.755 27.03-40.543 51.675-40.543 24.279 0 42.599 29.761 60.315 58.543 5.728 9.306 11.597 18.834 17.752 27.478-3.842 1.685-7.582 3.618-11.189 5.801-8.474 5.12-19.669 9.849-30.788 14.072-3.802-20.01-36.24-31.456-98.84-34.938-3.898-.218-7.563-.652-11.063-1.315 8.471-8.625 15.383-18.968 22.138-29.098z"/></g></g></svg>