<svg width="56" height="43" viewBox="0 0 56 43" fill="none" xmlns="http://www.w3.org/2000/svg">
<path d="M47.3342 16.34L43.7345 5.50942C43.2117 3.90249 42.1972 2.50379 40.8368 1.514C39.4763 0.52421 37.8398 -0.0057883 36.1619 4.76837e-05H22.5099C19.0702 4.76837e-05 16.0038 2.2038 14.9373 5.50942L12.8308 11.825L9.09785 8.06254L9.87111 7.28316C10.118 7.03435 10.3138 6.73897 10.4474 6.41388C10.581 6.08879 10.6498 5.74036 10.6498 5.38848C10.6498 5.0366 10.581 4.68817 10.4474 4.36308C10.3138 4.03799 10.118 3.74261 9.87111 3.49379C9.62424 3.24498 9.33118 3.04761 9.00864 2.91295C8.6861 2.7783 8.3404 2.70899 7.99129 2.70899C7.64217 2.70899 7.29648 2.7783 6.97394 2.91295C6.6514 3.04761 6.35833 3.24498 6.11147 3.49379L0.778646 8.86879C0.280087 9.37129 0 10.0528 0 10.7635C0 11.4741 0.280087 12.1557 0.778646 12.6582C1.27721 13.1607 1.9534 13.443 2.65847 13.443C3.36353 13.443 4.03973 13.1607 4.53829 12.6582L5.33821 11.8519L10.1111 16.6625C5.81816 18.06 2.6718 22.0913 2.6718 26.875C2.6718 30.8794 4.88492 34.3463 8.13794 36.2006C8.43074 38.0925 9.38394 39.8169 10.826 41.0634C12.268 42.3099 14.1041 42.9966 16.0038 43C19.4702 43 22.4032 40.7425 23.5231 37.625H35.1753C36.2686 40.7425 39.2016 43 42.6946 43C46.6676 43 49.9739 40.0438 50.5605 36.2006C53.7869 34.3463 56 30.8794 56 26.875C56 21.6344 52.267 17.2807 47.3342 16.34ZM32.0023 5.37504H36.1619C36.7209 5.37359 37.2662 5.54924 37.7208 5.87718C38.1753 6.20512 38.5161 6.66875 38.695 7.20254L41.6281 16.125H32.0023V5.37504ZM19.9768 7.20254C20.1557 6.66875 20.4965 6.20512 20.951 5.87718C21.4056 5.54924 21.9509 5.37359 22.5099 5.37504H26.6695V16.125H17.0971L17.0437 16.0713L19.9768 7.20254ZM16.0038 37.625C14.5373 37.625 13.3374 36.4156 13.3374 34.9375C13.3374 33.4594 14.5373 32.25 16.0038 32.25C17.4704 32.25 18.6703 33.4594 18.6703 34.9375C18.6703 36.4156 17.4704 37.625 16.0038 37.625ZM42.6679 37.625C41.2014 37.625 40.0015 36.4156 40.0015 34.9375C40.0015 33.4594 41.2014 32.25 42.6679 32.25C44.1345 32.25 45.3344 33.4594 45.3344 34.9375C45.3344 36.4156 44.1345 37.625 42.6679 37.625ZM49.3073 30.4225C48.5689 29.333 47.5787 28.4408 46.4221 27.8228C45.2654 27.2048 43.977 26.8795 42.6679 26.875C39.2016 26.875 36.2686 29.1325 35.1487 32.25H23.5231C22.4032 29.1325 19.4702 26.875 16.0038 26.875C13.2574 26.875 10.8043 28.2994 9.36449 30.4225C8.5379 29.4819 8.00462 28.2456 8.00462 26.875C8.00462 23.9188 10.4044 21.5 13.3374 21.5H45.3344C48.2674 21.5 50.6672 23.9188 50.6672 26.875C50.6672 28.2456 50.1339 29.4819 49.3073 30.4225Z" fill="#3D6E57"/>
</svg>
