<svg id="Capa_1" enable-background="new 0 0 512 512" height="512" viewBox="0 0 512 512" width="512" xmlns="http://www.w3.org/2000/svg"><g><g><g><g><g><g><g><g><g><g><circle cx="256" cy="256" fill="#b674f2" r="256"/></g></g></g></g></g></g></g></g></g><path d="m512 256c0-10.958-.689-21.756-2.025-32.352l-122.378-122.377-96.885 56.382-47.619-47.619-18.591 47.056-164.502 28.341 217.473 217.473-119.161-18.982 57.092 57.092-20.563 10.986 59.997 59.997c.387.002.774.003 1.162.003 141.385 0 256-114.615 256-256z" fill="#8f4cd6"/><g><ellipse cx="399.487" cy="282.063" fill="#e9edf5" rx="39.709" ry="39.709" transform="matrix(.686 -.728 .728 .686 -79.755 379.409)"/></g><g><path d="m353.257 343.701-19.445-26.486-25.48 18.707-7.712-101.422h-89.24l-10.757 141.469-21.587-17.544-20.724 25.497 39.278 31.923-2.749 36.155h122.318l-5.891-77.472z" fill="#ffce00"/></g><g><path d="m311.268 374.528 41.989-30.827-19.445-26.486-25.48 18.707-7.712-101.422h-44.62v217.5h61.159z" fill="#fdba12"/></g><g><g><g><path d="m98.771 160.359c0-44.702 36.239-80.941 80.941-80.941 35.192 0 65.138 22.459 76.287 53.826 11.149-31.367 41.096-53.826 76.287-53.826 44.703 0 80.941 36.239 80.941 80.941.002 92.064-157.227 189.001-157.227 189.001s-157.229-100.893-157.229-189.001z" fill="#a7e340"/></g></g></g><g><g><g><path d="m256 133.244c11.149-31.367 41.096-53.826 76.287-53.826 44.703 0 80.941 36.239 80.941 80.941.001 92.064-157.228 189.001-157.228 189.001z" fill="#86c42b"/></g></g></g><g><ellipse cx="109.069" cy="185.431" fill="#fff" rx="49.069" ry="49.068" transform="matrix(.686 -.728 .728 .686 -100.69 137.66)"/></g></g></svg>